<?xml version="1.0" encoding="UTF-8" standalone="no"?>
<svg width="302px" height="323px" viewBox="0 0 302 323" version="1.1" xmlns="http://www.w3.org/2000/svg" xmlns:xlink="http://www.w3.org/1999/xlink" xmlns:sketch="http://www.bohemiancoding.com/sketch/ns">
    <!-- Generator: Sketch 3.3.3 (12072) - http://www.bohemiancoding.com/sketch -->
    <title>kickstart-logo</title>
    <desc>Created with Sketch.</desc>
    <defs>
        <path id="path-1" d="M5.081,8.792 L0.879,31.543 C-0.037,37.212 4.075,44.531 10.576,45.596 C10.636,45.584 11.344,45.534 16.319,45.333 C22.807,45.072 32.76,34.209 33.677,28.534 L37.53,14.033 C38.446,8.358 33.907,2.905 27.391,1.852 L18.541,0.421 C17.802,0.302 17.069,0.245 16.349,0.245 C10.723,0.244 5.895,3.761 5.081,8.792"></path>
        <linearGradient x1="37.825912%" y1="26.1986424%" x2="30.7770408%" y2="12.3551658%" id="linearGradient-3">
            <stop stop-color="#D9B78B" offset="0%"></stop>
            <stop stop-color="#E4C79B" offset="17.8%"></stop>
            <stop stop-color="#EED7AC" offset="41.18%"></stop>
            <stop stop-color="#F5E0B6" offset="67.04%"></stop>
            <stop stop-color="#F7E3B9" offset="100%"></stop>
        </linearGradient>
        <path id="path-4" d="M7.401,6.866 C2.023,18.227 0.273,30.112 0.273,30.112 C-0.423,32.41 0.703,33.209 3.906,34.177 C7.104,35.145 11.744,32.348 13.203,29.511 L15.613,21.54 C18.638,20.597 21.451,17.805 22.834,13.939 C24.892,8.188 23.126,1.88 18.63,0.69 C17.662,0.433 16.769,0.32 15.945,0.32 C10.082,0.321 7.775,6.077 7.401,6.866"></path>
        <linearGradient x1="37.0008018%" y1="59.3873267%" x2="67.3359563%" y2="37.2120356%" id="linearGradient-6">
            <stop stop-color="#010101" offset="0%"></stop>
            <stop stop-color="#010101" offset="100%"></stop>
        </linearGradient>
        <path id="path-7" d="M7.401,6.866 C2.023,18.227 0.273,30.112 0.273,30.112 C-0.423,32.41 0.703,33.209 3.906,34.177 C7.104,35.145 11.744,32.348 13.203,29.511 L15.613,21.54 C18.638,20.597 21.451,17.805 22.834,13.939 C24.892,8.188 23.126,1.88 18.63,0.69 C17.662,0.433 16.769,0.32 15.945,0.32 C10.082,0.321 7.775,6.077 7.401,6.866"></path>
        <linearGradient x1="44.9606796%" y1="49.7472067%" x2="8.31826976%" y2="48.0058278%" id="linearGradient-9">
            <stop stop-color="#D9B78B" offset="0%"></stop>
            <stop stop-color="#E4C79B" offset="17.8%"></stop>
            <stop stop-color="#EED7AC" offset="41.18%"></stop>
            <stop stop-color="#F5E0B6" offset="67.04%"></stop>
            <stop stop-color="#F7E3B9" offset="100%"></stop>
        </linearGradient>
        <path id="path-10" d="M0.287,17.44 C0.95,17.807 1.651,18.109 2.392,18.325 C5.021,17.759 8.647,14.564 7.156,0.624 C7.155,0.624 7.411,17.391 0.287,17.44"></path>
        <linearGradient x1="54.1965393%" y1="15.857281%" x2="44.5925968%" y2="88.8320913%" id="linearGradient-12">
            <stop stop-color="#010101" offset="0%"></stop>
            <stop stop-color="#010101" offset="100%"></stop>
        </linearGradient>
        <path id="path-13" d="M0.287,15.6042105 C0.95,15.9325789 1.651,16.2027895 2.392,16.3960526 C5.021,15.8896316 8.647,13.0309474 7.156,0.558315789 C7.155,0.558315789 7.411,15.5603684 0.287,15.6042105"></path>
        <path id="path-15" d="M22.643,5.312 C22.643,5.312 11.554,22.13 6.345,37.974 C6.005,39.004 5.658,40.034 5.303,41.057 C4.837,42.412 0.578,56.634 0.578,56.634 C0.578,56.634 6.047,46.896 16.629,50.489 C21.724,52.218 35.775,53.574 46.035,51.706 C50.79,46.734 55.598,40.36 60.292,32.181 C74.973,6.603 63.504,0.594 49.488,0.593 C37.065,0.593 22.643,5.312 22.643,5.312"></path>
        <linearGradient x1="-0.752169424%" y1="43.3920831%" x2="32.9500236%" y2="47.8262898%" id="linearGradient-17">
            <stop stop-color="#FF0101" offset="0%"></stop>
            <stop stop-color="#600000" offset="100%"></stop>
        </linearGradient>
        <path id="path-18" d="M4.425,16.107 C-3.425,30.385 1.177,47.99 14.707,55.43 C28.236,62.867 45.568,57.324 53.418,43.045 C61.27,28.768 56.668,11.162 43.136,3.723 C39.059,1.481 34.639,0.418 30.234,0.418 C20.024,0.419 9.91,6.132 4.425,16.107"></path>
        <linearGradient x1="32.9176997%" y1="25.8403239%" x2="54.1861944%" y2="55.9900612%" id="linearGradient-20">
            <stop stop-color="#D00202" offset="0%"></stop>
            <stop stop-color="#410000" offset="100%"></stop>
        </linearGradient>
        <path id="path-21" d="M0.905,47.65 L0.908,47.65 C0.9,47.65 0.894,47.786 0.896,47.816 C1.441,58.694 7.185,67.994 20.736,71.413 C34.287,74.83 45.464,69.024 49.961,59.705 C49.974,59.679 49.978,59.65 49.986,59.65 L49.99,59.65 L66.476,15.237 L7.399,0.577 L0.905,47.65 L0.905,47.65 Z"></path>
        <linearGradient x1="-3.2171159%" y1="36.7393908%" x2="53.684701%" y2="54.1621982%" id="linearGradient-23">
            <stop stop-color="#FF0101" offset="0%"></stop>
            <stop stop-color="#520000" offset="100%"></stop>
        </linearGradient>
        <path id="path-24" d="M4.155,19.793 C4.155,19.793 -9.044,53.802 14.778,103.762 C23.735,122.545 32.771,148.541 76.598,152.231 C105.292,154.647 126.978,143.153 126.978,143.153 C126.978,143.153 128.883,41.744 90.922,3.128 C89.105,1.28 80.383,0.27 69.115,0.27 C42.24,0.27 0.879,6.011 4.155,19.793"></path>
        <linearGradient x1="4.75744219%" y1="50.032562%" x2="57.4384191%" y2="49.0428984%" id="linearGradient-26">
            <stop stop-color="#FF0000" offset="0%"></stop>
            <stop stop-color="#700000" offset="75.1953125%"></stop>
            <stop stop-color="#4F0000" offset="100%"></stop>
        </linearGradient>
        <path id="path-27" d="M0.324,30.662 C0.324,47.486 9.654,61.125 21.189,61.125 C22.262,61.125 23.479,61.006 24.508,60.778 L60.548,55.966 L60.548,5.356 L24.496,0.545 C23.467,0.318 22.327,0.199 21.255,0.199 C9.719,0.199 0.324,13.838 0.324,30.662"></path>
        <linearGradient x1="53.6960955%" y1="14.910828%" x2="37.8385461%" y2="44.2413189%" id="linearGradient-29">
            <stop stop-color="#CC0202" offset="0%"></stop>
            <stop stop-color="#4F0000" offset="100%"></stop>
        </linearGradient>
        <path id="path-30" d="M2.209,19.181 C-3.402,34.479 6.881,52.788 20.479,57.241 C26.7,59.277 40.706,52.291 46.315,36.993 C51.928,21.695 46.931,5.363 40.771,1.928 C39.99,1.493 39.086,1.363 38.232,1.158 C36.194,0.667 34.025,0.426 31.795,0.426 C20.04,0.426 6.632,7.126 2.209,19.181"></path>
        <linearGradient x1="50%" y1="16.498742%" x2="38.2316547%" y2="58.1647451%" id="linearGradient-32">
            <stop stop-color="#F96E6E" offset="0%"></stop>
            <stop stop-color="#660101" offset="48.6568718%"></stop>
            <stop stop-color="#530101" offset="100%"></stop>
        </linearGradient>
        <path id="path-33" d="M3.11,21.712 C-2.501,37.009 2.293,52.84 13.821,57.068 C25.348,61.296 39.243,52.323 44.853,37.026 C50.465,21.728 45.67,5.899 34.142,1.67 C33.423,1.405 32.693,1.193 31.957,1.03 C30.72,0.757 29.466,0.624 28.204,0.624 C18.196,0.625 7.782,8.978 3.11,21.712"></path>
        <linearGradient x1="58.7315768%" y1="7.70412989%" x2="58.7315738%" y2="63.7911369%" id="linearGradient-35">
            <stop stop-color="#E00101" offset="0%"></stop>
            <stop stop-color="#5D0000" offset="100%"></stop>
        </linearGradient>
        <path id="path-36" d="M2.34354734,21.088 C-0.551452658,28.98 -0.670452658,37.008 1.46954734,43.517 C-0.224452658,37.272 0.0645473418,29.812 2.75754734,22.47 C8.01954734,8.128 20.5595473,-0.655 31.6045473,1.788 C32.3405473,1.95 33.0705473,2.163 33.7905473,2.427 C39.3705473,4.475 43.3685473,9.246 45.3765473,15.354 C43.5395473,8.586 39.3705473,3.246 33.3755473,1.046 C32.6565473,0.781 31.9265473,0.569 31.1905473,0.406 C29.9545473,0.133 28.6985473,2.84217094e-14 27.4375473,2.84217094e-14 C17.4295473,2.84217094e-14 7.01654734,8.353 2.34354734,21.088"></path>
        <linearGradient x1="32.8959748%" y1="61.0487717%" x2="24.1051556%" y2="92.3507526%" id="linearGradient-38">
            <stop stop-color="#FFFFFF" offset="0%"></stop>
            <stop stop-color="#480101" offset="100%"></stop>
        </linearGradient>
        <rect id="path-39" x="0.845" y="0.189" width="109.773" height="46.031"></rect>
        <path id="path-41" d="M34.673,7.479 C7.191,14.863 1.239,28.299 0.72,37.702 C1.122,38.577 1.87,40.782 3.396,42.613 C3.645,44.665 4.772,47.277 5.485,47.884 C6.198,48.493 8.811,47.352 8.811,47.352 C8.781,47.189 5.764,31.239 38.585,22.928 C75.697,13.53 107.47,15.388 115.521,16.079 C114.75,11.334 113.867,6.517 112.848,1.689 C108.266,1.064 100.123,0.201 89.389,0.201 C75.021,0.201 56.008,1.747 34.673,7.479"></path>
        <linearGradient x1="-5.45731312%" y1="86.6436055%" x2="61.058439%" y2="50%" id="linearGradient-43">
            <stop stop-color="#E00101" offset="0%"></stop>
            <stop stop-color="#3D0000" offset="100%"></stop>
        </linearGradient>
        <path id="path-44" d="M0.765,22.84 L3.812,22.352 C3.785,22.204 1.298,9.025 25.456,0.383 C1.022,8.055 0.562,20.229 0.765,22.84"></path>
        <linearGradient x1="67.8888017%" y1="33.9301898%" x2="36.1476441%" y2="62.5768241%" id="linearGradient-46">
            <stop stop-color="#010101" offset="0%"></stop>
            <stop stop-color="#010101" offset="100%"></stop>
        </linearGradient>
        <path id="path-47" d="M0.821,0.383 L5.3,15.857 C20.241,15.015 31.237,15.712 35.521,16.079 C35.268,14.513 35.448,10.672 34.443,9.304 C34.827,7.508 34.657,7.296 34.237,5.184 C34.016,4.067 33.469,2.621 32.848,1.689 C28.267,1.064 20.124,0.202 9.391,0.202 C6.693,0.202 3.833,0.257 0.821,0.383"></path>
        <linearGradient x1="133.722352%" y1="50.2590477%" x2="38.9085465%" y2="50.2590477%" id="linearGradient-49">
            <stop stop-color="#F75050" offset="0%"></stop>
            <stop stop-color="#410000" offset="100%"></stop>
        </linearGradient>
        <path d="M82.412,0.381 C82.412,0.381 82.386,0.38 82.335,0.378 C82.361,0.379 82.385,0.38 82.412,0.381 M6.198,15.741 C1.306,20.543 0.363,25.207 0.363,25.207 C12.974,-2.13 79.755,0.275 82.334,0.378 C78.02,0.2 73.946,0.116 70.091,0.116 C25.417,0.118 10.703,11.324 6.198,15.741" id="path-50"></path>
        <linearGradient x1="70.2324089%" y1="41.8353169%" x2="35.9666775%" y2="55.6891535%" id="linearGradient-52">
            <stop stop-color="#010101" offset="0%"></stop>
            <stop stop-color="#010101" offset="100%"></stop>
        </linearGradient>
        <path d="M82.412,0.381 C82.412,0.381 82.386,0.38 82.335,0.378 C82.361,0.379 82.385,0.38 82.412,0.381 M6.198,15.741 C1.306,20.543 0.363,25.207 0.363,25.207 C12.974,-2.13 79.755,0.275 82.334,0.378 C78.02,0.2 73.946,0.116 70.091,0.116 C25.417,0.118 10.703,11.324 6.198,15.741" id="path-53"></path>
        <linearGradient x1="17.6927482%" y1="52.3321828%" x2="108.9465%" y2="26.4463361%" id="linearGradient-55">
            <stop stop-color="#000000" offset="0%"></stop>
            <stop stop-color="#666666" offset="100%"></stop>
        </linearGradient>
        <path d="M2.69140591,30.411122 C4.90729911,32.2793603 8.04776684,31.9068646 10.1713003,29.5668268 C12.3054551,27.2147952 12.2710407,24.1646149 10.0550754,22.2968265 C7.83905419,20.4293872 4.69836617,20.8032578 2.56428318,23.1548417 C0.440821047,25.494434 0.475456758,28.5432327 2.69140591,30.411122 Z M8.51255811,23.9968687 C9.87961858,25.1491531 10.0817374,26.9635496 8.78224207,28.3956355 C7.48276767,29.8275906 5.60084645,29.8642206 4.23381183,28.711775 C2.85573119,27.5501699 2.6539932,25.7572009 3.95343987,24.3254188 C5.25290749,22.893506 7.13445142,22.8354262 8.51255811,23.9968687 Z M18.926632,17.7368038 L11.3355965,16.1137251 L9.5389577,17.5552734 L15.5696194,24.9976101 L17.3170362,23.5955504 L13.3840696,18.7413929 L21.2303735,20.4550522 L22.9163542,19.1017829 L16.8856866,11.6594822 L15.1381758,13.062129 L18.926632,17.7368038 Z M25.2622406,14.0808302 L29.6934288,11.5805297 L28.8548614,9.98813626 L24.4236529,12.4885636 L23.4776999,10.6926494 L28.0049659,8.137877 L27.1663528,6.54576897 L20.6910073,10.1997625 L25.1657544,18.6958286 L31.6409413,15.0428242 L30.8024223,13.4501289 L26.2752256,16.004469 L25.2622406,14.0808302 Z M38.9725266,8.8398506 L32.5442989,4.8642299 L30.4182824,5.7072793 L33.488504,14.8761046 L35.556189,14.0566795 L33.553985,8.07629667 L40.1867248,12.22109 L42.181678,11.4300562 L39.11181,2.2590238 L37.0439646,3.07944989 L38.9725266,8.8398506 Z M43.2646392,7.03076911 C43.6462332,9.95902208 46.1471295,11.5868797 49.1929704,10.9438941 C52.2539968,10.2975092 54.2083598,7.72823628 53.8269408,4.79889091 C53.4454899,1.86974431 50.9444665,0.242679524 47.883266,0.890151205 C44.8372519,1.53421832 42.8830133,4.1027149 43.2646392,7.03076911 Z M51.6144327,5.26659844 C51.8497623,7.07359213 50.8177428,8.71413064 48.953835,9.10781837 C47.0899391,9.50143167 45.7124762,8.37005946 45.4770838,6.56345736 C45.2397808,4.74236246 46.2584942,3.11991064 48.1224574,2.72587726 C49.9864326,2.33176945 51.3771929,3.44510879 51.6144327,5.26659844 Z M61.3017583,0.349682716 L56.5421393,0.55270437 L56.0490154,10.4969473 L58.2151118,10.4054231 L58.3903945,6.87160737 L59.9768709,6.80432829 L61.7998628,10.2538692 L64.2863174,10.1486845 L62.1861146,6.45762308 C63.2970316,6.15747652 64.4725076,5.16996819 64.559836,3.41016128 C64.6516,1.56090243 63.4222396,0.259171773 61.3017583,0.349682716 Z M60.8889421,2.22722774 C61.7584806,2.1901829 62.389295,2.66924225 62.3478643,3.50432207 C62.3064327,4.33940812 61.6253201,4.87430836 60.7557964,4.91126081 L58.482836,5.00782538 L58.615943,2.32403378 L60.8889421,2.22722774 Z M74.9346857,1.4994133 L66.9321257,0.849272798 L66.601472,2.70909766 L69.5347069,2.94761526 L68.1008455,11.0127326 L70.2517687,11.1883673 L71.6857445,3.1225358 L74.6039338,3.35985092 L74.9346857,1.4994133 Z M82.8218067,7.33681114 L78.187425,6.4956176 L79.2615945,2.64528608 L77.1723803,2.26648345 L74.4379394,12.0675297 L76.5270174,12.4471826 L77.6749476,8.3325571 L82.3092727,9.17410415 L81.1612156,13.2895216 L83.2649834,13.6719854 L86,3.86734613 L83.8960949,3.48573866 L82.8218067,7.33681114 Z" id="path-56"></path>
        <linearGradient x1="31.0434702%" y1="66.9269599%" x2="84.728674%" y2="13.1289787%" id="linearGradient-58">
            <stop stop-color="#FFFFFF" offset="0%"></stop>
            <stop stop-color="#202026" offset="100%"></stop>
        </linearGradient>
        <path id="path-59" d="M0.481393939,34.995625 C0.481393939,34.995625 4.04418182,9.811375 51.3413333,0.791 C51.3421212,0.791 -0.0638181818,8.007125 0.481393939,34.995625"></path>
        <linearGradient x1="7.21381926%" y1="58.2347471%" x2="57.6892953%" y2="32.2763515%" id="linearGradient-61">
            <stop stop-color="#010101" offset="0%"></stop>
            <stop stop-color="#010101" stop-opacity="0.332823822" offset="100%"></stop>
        </linearGradient>
        <path id="path-62" d="M52.643,0.704 C45.788,0.762 17.417,1.897 0.101,8.465 C0.101,8.465 40.224,-1.327 74.974,5.838 C74.974,5.838 66.684,0.702 53.109,0.702 C52.954,0.702 52.798,0.702 52.643,0.704"></path>
        <linearGradient x1="26.4101791%" y1="44.0345164%" x2="66.1112735%" y2="53.9924516%" id="linearGradient-64">
            <stop stop-color="#010101" offset="0%"></stop>
            <stop stop-color="#010101" offset="100%"></stop>
        </linearGradient>
        <path id="path-65" d="M34.673,7.479 C7.191,14.863 1.239,28.299 0.72,37.702 L0.889,38.008 C1.407,28.605 11.399,14.963 38.882,7.58 C75.475,-2.252 102.015,2.121 113.226,3.6 C113.097,2.963 112.983,2.327 112.848,1.689 C108.266,1.064 100.123,0.201 89.389,0.201 C75.021,0.201 56.008,1.747 34.673,7.479"></path>
        <linearGradient x1="5.47795658%" y1="65.5028155%" x2="92.7081924%" y2="32.5662134%" id="linearGradient-67">
            <stop stop-color="#FFFFFF" offset="0%"></stop>
            <stop stop-color="#610505" offset="75.835688%"></stop>
            <stop stop-color="#FFFFFF" offset="100%"></stop>
        </linearGradient>
        <path id="path-68" d="M1,36.0486875 C20.6129107,38.5771484 42.5774727,36.1512714 65.76531,27.7393885 C76.2783023,23.9262969 86.4267424,18.9241642 96,13.0232563 C94.0638225,10.3747255 92.0049703,7.90221946 89.8072411,5.65003573 C88.0087834,3.80702203 79.377575,2.801 68.2257483,2.801 C41.6273222,2.801 0.69562781,8.52355172 3.93840681,22.2604736 C3.93840681,22.2604736 2.04389246,27.1973256 1,36.0486875 Z"></path>
        <linearGradient x1="-0.730521625%" y1="65.1042281%" x2="59.4884998%" y2="47.2498775%" id="linearGradient-70">
            <stop stop-color="#540202" offset="0%"></stop>
            <stop stop-color="#270000" offset="100%"></stop>
        </linearGradient>
        <path id="path-71" d="M52.392,3.686 C37.527,6.34 15.218,10.363 6.189,14.689 C-2.841,19.015 -3.274,66.182 28.65,55.614 C43.36,50.744 70.535,38.967 78.5,30.89 C90.502,18.718 81.846,13.712 80.903,6.775 C80.268,2.098 76.791,0.631 71.911,0.631 C66.476,0.631 59.302,2.453 52.392,3.686"></path>
        <linearGradient x1="50%" y1="7.77780533%" x2="50%" y2="45.9480405%" id="linearGradient-73">
            <stop stop-color="#FF0303" offset="0%"></stop>
            <stop stop-color="#4F0101" offset="100%"></stop>
        </linearGradient>
        <path id="path-74" d="M15.546,5.181 L1.673,29.847 C-1.035,34.665 1.252,41.091 6.784,44.202 L14.295,48.425 C19.826,51.536 26.504,50.153 29.215,45.336 L38.846,26.308 C39.457,25.22 39.918,23.756 40.203,22.072 C40.521,16.38 39.141,9.405 35.375,5.264 L31.068,1.493 C29.453,0.585 27.677,0.181 25.896,0.181 C21.884,0.183 17.841,2.234 15.546,5.181"></path>
        <linearGradient x1="59.1028512%" y1="38.7560036%" x2="79.3261052%" y2="13.8430949%" id="linearGradient-76">
            <stop stop-color="#D9B78B" offset="0%"></stop>
            <stop stop-color="#E4C79B" offset="17.8%"></stop>
            <stop stop-color="#EED7AC" offset="41.18%"></stop>
            <stop stop-color="#F5E0B6" offset="67.04%"></stop>
            <stop stop-color="#F7E3B9" offset="100%"></stop>
        </linearGradient>
        <path id="path-77" d="M0.97,17.745 C9.318,10.644 10.574,4.416 9.818,1.149 L9.07,0.494 C8.965,0.435 8.858,0.377 8.75,0.322 C11.298,5.864 0.97,17.745 0.97,17.745"></path>
        <linearGradient x1="8.07906699%" y1="134.7316%" x2="73.0315204%" y2="4.39164639%" id="linearGradient-79">
            <stop stop-color="#010101" offset="0%"></stop>
            <stop stop-color="#010101" offset="100%"></stop>
        </linearGradient>
        <path id="path-80" d="M0.97,17.745 C9.318,10.644 10.574,4.416 9.818,1.149 L9.07,0.494 C8.965,0.435 8.858,0.377 8.75,0.322 C11.298,5.864 0.97,17.745 0.97,17.745"></path>
        <path id="path-82" d="M4.944,0.767 C1.678,1.491 0.495,2.203 1.016,4.548 C1.016,4.548 1.2,16.808 6.372,28.265 C7.572,30.921 13.455,36.271 17.104,35.269 C21.59,34.037 26.836,28.519 25.219,22.629 C24.131,18.67 18.611,15.419 15.667,14.251 L13.863,6.121 C12.744,3.473 9.048,0.662 5.94,0.662 C5.6,0.662 5.267,0.696 4.944,0.767"></path>
        <linearGradient x1="42.8040493%" y1="55.7015235%" x2="66.6934487%" y2="37.0119168%" id="linearGradient-84">
            <stop stop-color="#D9B78B" offset="0%"></stop>
            <stop stop-color="#E4C79B" offset="17.8%"></stop>
            <stop stop-color="#EED7AC" offset="41.18%"></stop>
            <stop stop-color="#F5E0B6" offset="67.04%"></stop>
            <stop stop-color="#F7E3B9" offset="100%"></stop>
        </linearGradient>
        <path id="path-85" d="M0.114656563,2.733 C0.114656563,2.733 0.298656563,14.993 5.47065656,26.45 C6.67065656,29.106 12.5536566,34.456 16.2026566,33.454 C18.5366566,32.814 20.2746566,30.938 21.1886566,28.462 C20.2106566,29.931 18.8536566,31.007 17.1986566,31.462 C13.5506566,32.464 7.66665656,27.114 6.46765656,24.458 C1.29365656,13.001 1.11065656,0.741 1.11065656,0.741 C1.05065656,0.47 1.01965656,0.228 1.00465656,0 C0.100656563,0.581 -0.185343437,1.382 0.114656563,2.733"></path>
        <linearGradient x1="49.0719733%" y1="50.5143855%" x2="24.0367179%" y2="61.6113168%" id="linearGradient-87">
            <stop stop-color="#010101" offset="0%"></stop>
            <stop stop-color="#010101" offset="100%"></stop>
        </linearGradient>
        <path id="path-88" d="M0.816,19.721 C11.137,45.502 27.706,26.809 27.706,26.809 C27.706,26.809 31.949,17.582 28.73,0.52 C19.601,8.829 0.816,19.721 0.816,19.721"></path>
        <linearGradient x1="71.6612157%" y1="15.3394876%" x2="50%" y2="75.3141933%" id="linearGradient-90">
            <stop stop-color="#F91818" offset="0%"></stop>
            <stop stop-color="#320000" offset="100%"></stop>
        </linearGradient>
        <path id="path-91" d="M0.4,6.654 C0.4,10.299 14.164,13.254 31.143,13.254 C48.122,13.254 61.886,10.299 61.886,6.654 C61.886,3.01 48.122,0.055 31.143,0.055 C14.164,0.055 0.4,3.01 0.4,6.654"></path>
        <linearGradient x1="30.4850522%" y1="-27.6451897%" x2="39.5307386%" y2="8.26503704%" id="linearGradient-93">
            <stop stop-color="#CF2727" offset="0%"></stop>
            <stop stop-color="#560000" offset="100%"></stop>
        </linearGradient>
        <path id="path-94" d="M63.031,14.048 C13.026,38.738 -11.926,90.317 7.298,129.253 C26.522,168.19 73.237,184.122 123.242,159.433 C173.248,134.743 204.949,77.162 185.724,38.226 C173.565,13.598 147.714,0.575 117.697,0.576 C100.258,0.577 81.408,4.975 63.031,14.048"></path>
        <linearGradient x1="35.7522238%" y1="54.4180216%" x2="80.4014138%" y2="38.9574622%" id="linearGradient-96">
            <stop stop-color="#D9B78B" offset="0%"></stop>
            <stop stop-color="#E4C79B" offset="17.8%"></stop>
            <stop stop-color="#EED7AC" offset="41.18%"></stop>
            <stop stop-color="#F5E0B6" offset="67.04%"></stop>
            <stop stop-color="#F7E3B9" offset="100%"></stop>
        </linearGradient>
        <path id="path-97" d="M5.408,5.723 C1.256,20.664 0.387,25.307 0.387,25.307 C0.387,25.307 -0.344,32.237 11.768,35.182 C23.881,38.127 48.57,36.414 48.57,36.414 L56.636,11.004 C56.636,11.004 31.534,0.222 16.373,0.222 C10.772,0.221 6.528,1.693 5.408,5.723"></path>
        <linearGradient x1="17.3918102%" y1="36.6738127%" x2="38.8305601%" y2="45.4904785%" id="linearGradient-99">
            <stop stop-color="#FC0202" offset="0%"></stop>
            <stop stop-color="#400000" offset="100%"></stop>
        </linearGradient>
        <path id="path-100" d="M0.02,4.262 C-0.292,7.732 8.26,11.822 19.294,13.444 C30.45,15.085 39.909,13.584 40.422,10.088 C40.671,8.403 38.735,6.848 35.439,5.367 C27.411,2.757 17.73,0.225 10.383,0.225 C5.521,0.225 1.682,1.333 0.02,4.262"></path>
        <linearGradient x1="13.506682%" y1="38.1694548%" x2="82.3989166%" y2="60.3853105%" id="linearGradient-102">
            <stop stop-color="#C23333" offset="0%"></stop>
            <stop stop-color="#450000" offset="100%"></stop>
        </linearGradient>
        <path id="path-103" d="M0.333,2.308 C0.055,4.201 7.004,6.792 15.857,8.094 C24.708,9.396 32.109,8.916 32.388,7.023 C32.666,5.129 25.592,3.206 16.866,1.236 C13.123,0.391 9.956,0.051 7.427,0.051 C2.985,0.051 0.511,1.1 0.333,2.308"></path>
        <linearGradient x1="101.197827%" y1="70.4999956%" x2="65.1304292%" y2="55.9338235%" id="linearGradient-105">
            <stop stop-color="#FF0202" offset="0%"></stop>
            <stop stop-color="#4F0000" offset="100%"></stop>
        </linearGradient>
        <path id="path-106" d="M1.479,38.295 C11.078,50.474 14.31,53.919 14.31,53.919 C14.31,53.919 19.468,58.605 29.003,50.574 C38.536,42.542 51.745,21.614 51.745,21.614 L36.015,0.09 C36.015,0.09 -8.12,26.116 1.479,38.295"></path>
        <linearGradient x1="25.0570336%" y1="53.8503583%" x2="39.3525901%" y2="51.6427035%" id="linearGradient-108">
            <stop stop-color="#F8383B" offset="0%"></stop>
            <stop stop-color="#700000" offset="100%"></stop>
        </linearGradient>
        <path id="path-109" d="M26.521,0.191 C18.842,5.431 8.49,13.259 3.325,20.473 C2.094,22.41 1.14,24.228 0.511,25.841 C-0.197,28.223 0.005,30.423 1.48,32.295 C1.514,32.338 1.545,32.379 1.58,32.421 C5.083,33.104 12.637,28.354 19.706,20.768 C27.717,12.169 32.06,3.196 29.406,0.725 C28.948,0.298 28.308,0.097 27.525,0.097 C27.211,0.097 26.876,0.129 26.521,0.191"></path>
        <linearGradient x1="95.2272357%" y1="20.9126211%" x2="27.5762664%" y2="79.353896%" id="linearGradient-111">
            <stop stop-color="#D80C0C" offset="0%"></stop>
            <stop stop-color="#CA0B0B" offset="0%"></stop>
            <stop stop-color="#BF0A0A" offset="42.193097%"></stop>
            <stop stop-color="#550202" offset="100%"></stop>
        </linearGradient>
        <path id="path-112" d="M6.736,8.226 C1.868,13.452 -0.843,18.839 0.682,20.259 C2.206,21.68 7.389,18.595 12.257,13.37 C17.125,8.145 19.835,2.758 18.31,1.337 C18.059,1.103 17.709,0.992 17.278,0.992 C15.088,0.991 10.803,3.862 6.736,8.226"></path>
        <linearGradient x1="119.315615%" y1="39.4567955%" x2="90.5024155%" y2="68.5366673%" id="linearGradient-114">
            <stop stop-color="#A40101" offset="0%"></stop>
            <stop stop-color="#600000" offset="100%"></stop>
        </linearGradient>
        <path id="path-115" d="M81.817,9.994 C23.217,31.098 -11.243,84.431 4.85,129.114 C20.942,173.797 70.503,196.596 129.104,175.491 C169.734,160.858 204.173,125.91 215.226,92.218 C200.764,91.164 160.279,92.52 130.873,101.807 C95.257,113.053 80.617,123.399 65.628,132.469 C53.702,139.684 46.098,134.098 44.695,132.469 C43.21,130.745 36.884,122.784 34.697,105.6 C32.509,88.416 63.768,67.182 117.442,53.254 C163.361,41.337 200.955,44.933 212.689,46.471 C199.979,17.262 168.54,1.002 131.287,1 C115.512,0.999 98.701,3.913 81.817,9.994"></path>
        <linearGradient x1="43.796283%" y1="28.0519827%" x2="58.8473435%" y2="69.1441361%" id="linearGradient-117">
            <stop stop-color="#DD0606" offset="0%"></stop>
            <stop stop-color="#890000" offset="100%"></stop>
        </linearGradient>
        <path id="path-118" d="M83.589,8.847 C29.917,22.775 -1.342,44.01 0.845,61.193 C1.354,65.193 2.09,68.687 2.934,71.726 C2.449,69.55 2.026,67.181 1.697,64.6 C-0.491,47.416 30.768,26.182 84.442,12.254 C130.361,0.337 167.955,3.933 179.689,5.471 C179.17,4.279 178.616,3.111 178.036,1.962 C172.726,1.292 163.05,0.334 150.252,0.334 C132.792,0.334 109.521,2.117 83.589,8.847"></path>
        <linearGradient x1="45.7047174%" y1="33.3120241%" x2="46.8668461%" y2="38.0816255%" id="linearGradient-120">
            <stop stop-color="#A60101" offset="0%"></stop>
            <stop stop-color="#8F0101" offset="100%"></stop>
        </linearGradient>
        <path id="path-121" d="M0.382,39.816 C60.465,3.655 117.003,0.83 156.266,8.016 C154.793,5.626 153.18,3.344 151.434,1.171 C145.668,0.859 140.057,0.711 134.615,0.711 C45.911,0.709 0.382,39.816 0.382,39.816"></path>
        <linearGradient x1="-44.1324751%" y1="85.2162198%" x2="95.6645653%" y2="32.703866%" id="linearGradient-123">
            <stop stop-color="#FA3030" offset="0%"></stop>
            <stop stop-color="#890101" offset="100%"></stop>
        </linearGradient>
        <path id="path-124" d="M20.9049393,112.494 C20.8289393,112.407 20.7389393,112.299 20.6399393,112.181 C20.6269393,112.165 20.6159393,112.152 20.6029393,112.136 C20.5019393,112.014 20.3909393,111.873 20.2699393,111.719 C20.2539393,111.698 20.2379393,111.679 20.2219393,111.657 C20.0949393,111.494 19.9579393,111.313 19.8129393,111.115 C19.8029393,111.102 19.7939393,111.088 19.7839393,111.076 C17.7219393,108.258 13.9339393,101.935 11.7749393,90.991 C11.7749393,90.988 11.7739393,90.985 11.7739393,90.983 C7.19493935,73.655 8.16693935,55.798 10.7949393,41.002 C12.7299393,30.102 22.9769393,12.192 34.3359393,1 C27.3529393,5.033 20.8899393,9.555 15.0179393,14.468 C7.15893935,25.979 2.93493935,39.345 2.51793935,44.209 C-1.66906065,93.041 20.9049393,112.494 20.9049393,112.494"></path>
        <path id="path-126" d="M4.22491875,1 C4.22491875,1 -5.58841458,46.997 32.3552045,81.846 C32.3552045,81.846 -10.9499384,60.603 4.22491875,1"></path>
        <path id="path-128" d="M31.1802464,79.5477192 C31.1802464,79.5466028 -18.5977536,54.5562093 0.919246379,-4.77057872 C0.919246379,-4.77057872 -17.4377536,44.7379965 31.1802464,79.5477192 Z"></path>
        <path id="path-130" d="M13.809,14.442 C5.95,25.953 1.725,39.319 1.309,44.182 C-2.878,93.014 19.696,112.469 19.696,112.469 C19.62,112.382 19.53,112.274 19.431,112.154 C19.418,112.139 19.408,112.126 19.394,112.11 C19.293,111.987 19.182,111.847 19.06,111.693 C19.045,111.671 19.029,111.653 19.013,111.631 C18.886,111.468 18.75,111.287 18.604,111.089 C18.594,111.076 18.585,111.062 18.575,111.05 C16.513,108.232 12.725,101.908 10.566,90.964 C10.566,90.962 10.565,90.959 10.565,90.956 C5.986,73.628 6.958,55.772 9.586,40.976 C11.521,30.077 21.768,12.166 33.126,0.974 C26.144,5.007 19.68,9.529 13.809,14.442"></path>
        <linearGradient x1="86.7350054%" y1="-11.7880658%" x2="36.1291713%" y2="79.9399039%" id="linearGradient-132">
            <stop stop-color="#FA5050" offset="0%"></stop>
            <stop stop-color="#7C0101" offset="100%"></stop>
        </linearGradient>
        <path id="path-133" d="M0.887,54.813 C50.522,-1.399 122.213,4.804 158.682,7.73 C155.42,5.105 151.906,2.733 148.169,0.622 C25.895,2.819 0.887,54.813 0.887,54.813"></path>
        <rect id="path-135" x="0.887" y="0.62" width="157.795" height="54.19"></rect>
        <path id="path-137" d="M102.542,5.402 C125.667,1.789 148.892,1.324 159.115,2.07 C148.062,35.762 113.623,70.71 72.994,85.343 C65.71,87.966 58.566,89.91 51.608,91.219 C60.162,89.974 69.024,87.761 78.104,84.491 C118.734,69.858 153.173,34.91 164.226,1.218 C161.611,1.028 158.143,0.916 154.046,0.916 C140.944,0.916 121.387,2.056 102.542,5.402"></path>
        <path id="path-139" d="M0.971,18.853 C52.513,32.822 53.901,0.952 53.901,0.952 C38.729,18.344 0.971,18.853 0.971,18.853"></path>
        <linearGradient x1="63.6857992%" y1="55.7747282%" x2="57.317807%" y2="37.7283342%" id="linearGradient-141">
            <stop stop-color="#860101" offset="0%"></stop>
            <stop stop-color="#4D0101" offset="100%"></stop>
        </linearGradient>
        <rect id="path-142" x="0.384" y="0.247" width="53.616" height="26.868"></rect>
        <path id="path-144" d="M7.271,5.65 C6.86,8.973 7.446,12.845 9.146,16.611 C12.827,24.765 20.326,29.334 25.901,26.818 C31.474,24.302 33.011,15.652 29.333,7.5 C29.044,6.861 28.731,6.243 28.399,5.65 L7.271,5.65 L7.271,5.65 Z"></path>
        <linearGradient x1="43.8834261%" y1="0%" x2="68.2827216%" y2="79.8864983%" id="linearGradient-146">
            <stop stop-color="#8C7375" offset="0%"></stop>
            <stop stop-color="#241719" offset="100%"></stop>
        </linearGradient>
        <rect id="path-147" x="0.711" y="0.65" width="2380" height="1280"></rect>
        <path id="path-149" d="M0.107,0.65 C0.233,1.039 0.384,1.431 0.56,1.821 C2.156,5.36 5.232,7.426 7.421,6.437 C9.113,5.674 9.786,3.314 9.271,0.65 L0.107,0.65 L0.107,0.65 Z"></path>
        <linearGradient x1="35.2694502%" y1="-6.14744953%" x2="49.5932394%" y2="49.3434181%" id="linearGradient-151">
            <stop stop-color="#A4A0BD" offset="0%"></stop>
            <stop stop-color="#FFFFFF" offset="100%"></stop>
        </linearGradient>
        <path id="path-152" d="M7.708,21.138 C7.761,21.409 7.817,21.682 7.878,21.953 C9.934,31.115 16.014,37.231 21.458,35.616 C26.903,34 29.651,25.264 27.596,16.098 C26.886,12.932 25.696,10.129 24.216,7.884 L7.708,21.138 L7.708,21.138 Z"></path>
        <linearGradient x1="50%" y1="12.5095983%" x2="58.2165026%" y2="100%" id="linearGradient-154">
            <stop stop-color="#5E494B" offset="0%"></stop>
            <stop stop-color="#463537" offset="100%"></stop>
        </linearGradient>
        <path id="path-155" d="M0.239,6.288 C1.258,9.837 3.535,12.16 5.535,11.567 C7.673,10.933 8.689,7.191 7.797,3.214 C7.605,2.358 7.341,1.561 7.022,0.843 L0.239,6.288 L0.239,6.288 Z"></path>
        <linearGradient x1="33.2512753%" y1="11.2637508%" x2="53.7513647%" y2="58.0942782%" id="linearGradient-157">
            <stop stop-color="#A4A0BD" offset="0%"></stop>
            <stop stop-color="#FFFFFF" offset="100%"></stop>
        </linearGradient>
    </defs>
    <g id="Page-1" stroke="none" stroke-width="1" fill="none" fill-rule="evenodd" sketch:type="MSPage">
        <g id="Desktop-HD" sketch:type="MSArtboardGroup" transform="translate(-447.000000, -260.000000)">
            <g id="kickstart-logo" sketch:type="MSLayerGroup" transform="translate(447.000000, 259.000000)">
                <g id="Palm---Right-Hand" transform="translate(103.000000, 200.000000)">
                    <mask id="mask-2" sketch:name="SVGID_17_" fill="white">
                        <use xlink:href="#path-1"></use>
                    </mask>
                    <g id="SVGID_17_"></g>
                    <path d="M7.659,60.993 L-18.18,9.315 L30.749,-15.149 L56.588,36.529 L7.659,60.993 Z" id="Shape" fill="url(#linearGradient-3)" sketch:type="MSShapeGroup" mask="url(#mask-2)"></path>
                </g>
                <g id="Right-Hand-Thumb" transform="translate(99.000000, 197.000000)">
                    <g id="Path-+-Shape">
                        <mask id="mask-5" sketch:name="Path" fill="white">
                            <use xlink:href="#path-4"></use>
                        </mask>
                        <g id="Path"></g>
                        <path d="M-17.05,12.564 L15.992,-11.767 L41.52,22.901 L8.478,47.232 L-17.05,12.564 Z" id="Shape" fill="url(#linearGradient-6)" sketch:type="MSShapeGroup" mask="url(#mask-5)"></path>
                    </g>
                    <g id="Path-Copy-+-Shape">
                        <mask id="mask-8" sketch:name="Path" fill="white">
                            <use xlink:href="#path-7"></use>
                        </mask>
                        <g id="Path"></g>
                        <path d="M24.799,36.683 L-2.538,35.016 L-0.329,-1.218 L27.007,0.449 L24.799,36.683 Z" id="Shape" fill="url(#linearGradient-9)" sketch:type="MSShapeGroup" mask="url(#mask-8)"></path>
                    </g>
                </g>
                <g id="RIght-Hand-Finger-Shadow-1" transform="translate(110.000000, 227.000000)">
                    <mask id="mask-11" sketch:name="SVGID_41_" fill="white">
                        <use xlink:href="#path-10"></use>
                    </mask>
                    <g id="SVGID_41_"></g>
                    <path d="M9.996,0.728 L8.598,18.962 L-1.063,18.221 L0.335,-0.014 L9.996,0.728 Z" id="Shape" fill="url(#linearGradient-12)" sketch:type="MSShapeGroup" mask="url(#mask-11)"></path>
                </g>
                <g id="RIght-Hand-Finger-Shadow-2" transform="translate(121.000000, 236.500000) rotate(-16.000000) translate(-121.000000, -236.500000) translate(117.000000, 228.000000)">
                    <mask id="mask-14" sketch:name="SVGID_41_" fill="white">
                        <use xlink:href="#path-13"></use>
                    </mask>
                    <g id="SVGID_41_"></g>
                    <path d="M9.996,0.651368421 L8.598,16.966 L-1.063,16.303 L0.335,-0.0125263158 L9.996,0.651368421 Z" id="Shape" fill="url(#linearGradient-12)" sketch:type="MSShapeGroup" mask="url(#mask-14)"></path>
                </g>
                <g id="Right-Arm" transform="translate(102.000000, 157.000000)">
                    <mask id="mask-16" sketch:name="SVGID_38_" fill="white">
                        <use xlink:href="#path-15"></use>
                    </mask>
                    <g id="SVGID_38_"></g>
                    <path d="M1.462,-7.473 L81.048,1.26 L74.087,64.7 L-5.498,55.967 L1.462,-7.473 Z" id="Shape" fill="url(#linearGradient-17)" sketch:type="MSShapeGroup" mask="url(#mask-16)"></path>
                </g>
                <g id="Right-Leg-Foot" transform="translate(142.000000, 265.000000)">
                    <mask id="mask-19" sketch:name="SVGID_51_" fill="white">
                        <use xlink:href="#path-18"></use>
                    </mask>
                    <g id="SVGID_51_"></g>
                    <path d="M39.769,-29.164 L91.576,42.112 L18.077,92.449 L-33.73,21.173 L39.769,-29.164 Z" id="Shape" fill="url(#linearGradient-20)" sketch:type="MSShapeGroup" mask="url(#mask-19)"></path>
                </g>
                <g id="Right-Leg" transform="translate(144.000000, 242.000000)">
                    <mask id="mask-22" sketch:name="SVGID_56_" fill="white">
                        <use xlink:href="#path-21"></use>
                    </mask>
                    <g id="SVGID_56_"></g>
                    <path d="M5.043,-15.388 L84.552,5.274 L62.328,90.795 L-17.182,70.132 L5.043,-15.388 Z" id="Shape" fill="url(#linearGradient-23)" sketch:type="MSShapeGroup" mask="url(#mask-22)"></path>
                </g>
                <g id="Main-Body" transform="translate(118.000000, 140.000000)">
                    <mask id="mask-25" sketch:name="SVGID_59_" fill="white">
                        <use xlink:href="#path-24"></use>
                    </mask>
                    <g id="SVGID_59_"></g>
                    <path d="M-15.744,1.015 L132.217,-9.291 L143.584,153.902 L-4.378,164.208 L-15.744,1.015 Z" id="Shape" fill="url(#linearGradient-26)" sketch:type="MSShapeGroup" mask="url(#mask-25)"></path>
                </g>
                <g id="Left-Kick-leg" transform="translate(197.000000, 227.000000)">
                    <mask id="mask-28" sketch:name="SVGID_67_" fill="white">
                        <use xlink:href="#path-27"></use>
                    </mask>
                    <g id="SVGID_67_"></g>
                    <path d="M86.305,14.396 L46.516,86.584 L-25.432,46.928 L14.357,-25.261 L86.305,14.396 Z" id="Shape" fill="url(#linearGradient-29)" sketch:type="MSShapeGroup" mask="url(#mask-28)"></path>
                </g>
                <g id="Left-Foot-Side-Shadow" transform="translate(233.000000, 225.000000)">
                    <mask id="mask-31" sketch:name="SVGID_70_" fill="white">
                        <use xlink:href="#path-30"></use>
                    </mask>
                    <g id="SVGID_70_"></g>
                    <path d="M81.161,26.494 L27.42,86.761 L-32.635,33.209 L21.106,-27.058 L81.161,26.494 Z" id="Shape" fill="url(#linearGradient-32)" sketch:type="MSShapeGroup" mask="url(#mask-31)"></path>
                </g>
                <g id="Left-Foot-Bottom" transform="translate(239.000000, 225.000000)">
                    <mask id="mask-34" sketch:name="SVGID_73_" fill="white">
                        <use xlink:href="#path-33"></use>
                    </mask>
                    <g id="SVGID_73_"></g>
                    <path d="M49.921,-4.725 L56.593,60.671 L-1.955,66.645 L-8.627,1.249 L49.921,-4.725 Z" id="Shape" opacity="0.989913713" fill="url(#linearGradient-35)" sketch:type="MSShapeGroup" mask="url(#mask-34)"></path>
                    <g id="Mask-+-Shape" mask="url(#mask-34)">
                        <g transform="translate(1.000000, 0.000000)">
                            <mask id="mask-37" sketch:name="Mask" fill="white">
                                <use xlink:href="#path-36"></use>
                            </mask>
                            <use id="Mask" stroke="none" fill="none" sketch:type="MSShapeGroup" xlink:href="#path-36"></use>
                            <path d="M54.598,2.471 L42.445,54.552 L-11,42.081 L1.153,-10 L54.598,2.471 Z" id="Shape" stroke="none" opacity="0.281833022" fill="url(#linearGradient-38)" fill-rule="evenodd" sketch:type="MSShapeGroup" mask="url(#mask-37)"></path>
                        </g>
                    </g>
                </g>
                <g id="Belt-Bottom-Shadow" transform="translate(109.000000, 214.000000)">
                    <mask id="mask-40" sketch:name="SVGID_83_" fill="white">
                        <use xlink:href="#path-39"></use>
                    </mask>
                    <g id="SVGID_83_"></g>
                    <path d="M59.819892,15.9159498 C94.3315114,7.64596808 124.465114,8.0929671 137,8.78896556 C136.224363,4.00097613 135.320862,-0.884013085 134.267306,-5.78800226 C120.48337,-7.21099912 91.1190639,-8.54199618 55.6859792,0.466983933 C32.541563,6.35197094 23.8542173,16.0789495 21,24.5469308 C21.6530568,25.9399277 22.327248,27.3429246 23.0426517,28.7619215 C24.7143924,32.0769142 26.3903601,35.6179063 28.2692192,39.2198984 C28.2438578,35.4329067 30.4904576,22.9439343 59.819892,15.9159498" id="Shape" opacity="0.223064366" fill="#010101" sketch:type="MSShapeGroup" mask="url(#mask-40)"></path>
                </g>
                <g id="Belt-Main-Highlight" transform="translate(128.000000, 205.000000)">
                    <mask id="mask-42" sketch:name="SVGID_85_" fill="white">
                        <use xlink:href="#path-41"></use>
                    </mask>
                    <g id="SVGID_85_"></g>
                    <path d="M0.728,-0.725 L115.911,0.204 L115.514,49.418 L0.331,48.49 L0.728,-0.725 Z" id="Shape" fill="url(#linearGradient-43)" sketch:type="MSShapeGroup" mask="url(#mask-42)"></path>
                </g>
                <g id="Belt-Bottom-Shadow-left" transform="translate(133.000000, 230.000000)">
                    <mask id="mask-45" sketch:name="SVGID_91_" fill="white">
                        <use xlink:href="#path-44"></use>
                    </mask>
                    <g id="SVGID_91_"></g>
                    <path d="M36.625,12.762 L11.732,35.221 L-10.608,10.46 L14.284,-11.999 L36.625,12.762 Z" id="Shape" opacity="0.566989272" fill="url(#linearGradient-46)" sketch:type="MSShapeGroup" mask="url(#mask-45)"></path>
                </g>
                <g id="Belt-Far-Righ-Highlight" transform="translate(208.000000, 205.000000)">
                    <mask id="mask-48" sketch:name="SVGID_88_" fill="white">
                        <use xlink:href="#path-47"></use>
                    </mask>
                    <g id="SVGID_88_"></g>
                    <rect id="Rectangle-path" fill="url(#linearGradient-49)" sketch:type="MSShapeGroup" mask="url(#mask-48)" x="0.821" y="0.202" width="34.7" height="15.877"></rect>
                </g>
                <g id="Belt-Shadow-Left-Bottom" transform="translate(136.000000, 217.000000)">
                    <g id="Clipped" transform="translate(1.000000, 0.000000)">
                        <mask id="mask-51" sketch:name="SVGID_114_" fill="white">
                            <use xlink:href="#path-50"></use>
                        </mask>
                        <g id="SVGID_114_"></g>
                        <path d="M90,22.907 L7.267,47.984 L-7.226,0.17 L75.507,-24.907 L90,22.907 Z" id="Shape" opacity="0.676014459" fill="url(#linearGradient-52)" sketch:type="MSShapeGroup" mask="url(#mask-51)"></path>
                    </g>
                    <g id="SVGID_116_" transform="translate(0.774000, 0.093000)">
                        <g id="Clipped">
                            <mask id="mask-54" sketch:name="SVGID_114_" fill="white">
                                <use xlink:href="#path-53"></use>
                            </mask>
                            <g id="SVGID_114_"></g>
                            <path d="M92,22.907 L9.267,47.984 L-5.226,0.17 L77.507,-24.907 L92,22.907 Z" id="Shape" opacity="0.448227612" fill="url(#linearGradient-55)" sketch:type="MSShapeGroup" mask="url(#mask-54)"></path>
                        </g>
                    </g>
                </g>
                <g id="ONENORTH" transform="translate(129.000000, 181.000000)">
                    <mask id="mask-57" sketch:name="Mask" fill="white">
                        <use xlink:href="#path-56"></use>
                    </mask>
                    <use id="Mask" sketch:type="MSShapeGroup" xlink:href="#path-56"></use>
                    <path d="M5.36965867,-12.862 L122,-0.141017734 L90.6303413,42 L-26,29.2790177 L5.36965867,-12.862 Z" id="Shape" fill="url(#linearGradient-58)" sketch:type="MSShapeGroup" mask="url(#mask-57)"></path>
                </g>
                <g id="Belt-Shadow-Left-Top" transform="translate(133.000000, 211.000000)">
                    <mask id="mask-60" sketch:name="SVGID_109_" fill="white">
                        <use xlink:href="#path-59"></use>
                    </mask>
                    <g id="SVGID_109_"></g>
                    <path d="M64.148303,27.390125 L11.3659394,58.734375 L-12.87,8.3965 L39.9123636,-22.94775 L64.148303,27.390125 Z" id="Shape" opacity="0.443038713" fill="url(#linearGradient-61)" sketch:type="MSShapeGroup" mask="url(#mask-60)"></path>
                </g>
                <g id="Belt-Shadow-Right" transform="translate(167.000000, 211.000000)">
                    <g id="Clipped">
                        <mask id="mask-63" sketch:name="SVGID_119_" fill="white">
                            <use xlink:href="#path-62"></use>
                        </mask>
                        <g id="SVGID_119_"></g>
                        <path d="M1.481,8.426 L76.673,13.197 L77.592,-1.288 L2.401,-6.059 L1.481,8.426 Z" id="Shape" opacity="0.420592351" fill="url(#linearGradient-64)" sketch:type="MSShapeGroup" mask="url(#mask-63)"></path>
                    </g>
                </g>
                <g id="Belt-Top-Highlight" transform="translate(128.000000, 205.000000)">
                    <mask id="mask-66" sketch:name="SVGID_96_" fill="white">
                        <use xlink:href="#path-65"></use>
                    </mask>
                    <g id="SVGID_96_"></g>
                    <path d="M-8.613,0.042 L106.814,-28.335 L122.56,35.713 L7.133,64.091 L-8.613,0.042 Z" id="Shape" opacity="0.356809701" fill="url(#linearGradient-67)" sketch:type="MSShapeGroup" mask="url(#mask-66)"></path>
                </g>
                <g id="Chin-Shadow" transform="translate(105.000000, 149.000000)">
                    <g id="Clipped">
                        <mask id="mask-69" sketch:name="SVGID_124_" fill="white">
                            <use xlink:href="#path-68"></use>
                        </mask>
                        <g id="SVGID_124_"></g>
                        <path d="M6,0.130824722 L93.9562169,-16 L103,27.8691753 L15.0437831,44 L6,0.130824722 Z" id="Shape" fill="url(#linearGradient-70)" sketch:type="MSShapeGroup" mask="url(#mask-69)"></path>
                    </g>
                </g>
                <g id="Right-Arm" transform="translate(201.000000, 130.000000)">
                    <mask id="mask-72" sketch:name="SVGID_129_" fill="white">
                        <use xlink:href="#path-71"></use>
                    </mask>
                    <g id="SVGID_129_"></g>
                    <path d="M94.458,0.871 L90.157,71.844 L-7.233,65.942 L-2.931,-5.032 L94.458,0.871 Z" id="Shape" fill="url(#linearGradient-73)" sketch:type="MSShapeGroup" mask="url(#mask-72)"></path>
                </g>
                <g id="Right-Hand" transform="translate(261.000000, 103.000000)">
                    <mask id="mask-75" sketch:name="SVGID_132_" fill="white">
                        <use xlink:href="#path-74"></use>
                    </mask>
                    <g id="SVGID_132_"></g>
                    <path d="M-26.152,31.195 L15.427,-20.143 L65.64,20.524 L24.062,71.862 L-26.152,31.195 Z" id="Shape" fill="url(#linearGradient-76)" sketch:type="MSShapeGroup" mask="url(#mask-75)"></path>
                </g>
                <g id="Right-Hand-Finger-Shadow-1" transform="translate(283.000000, 104.000000)">
                    <mask id="mask-78" sketch:name="SVGID_142_" fill="white">
                        <use xlink:href="#path-77"></use>
                    </mask>
                    <g id="SVGID_142_"></g>
                    <path d="M-5.696,14.641 L2.81,-3.63 L17.965,3.425 L9.458,21.697 L-5.696,14.641 Z" id="Shape" opacity="0.282765858" fill="url(#linearGradient-79)" sketch:type="MSShapeGroup" mask="url(#mask-78)"></path>
                </g>
                <g id="Right-Hand-Finger-Shadow-2" transform="translate(288.000000, 109.000000)">
                    <mask id="mask-81" sketch:name="SVGID_142_" fill="white">
                        <use xlink:href="#path-80"></use>
                    </mask>
                    <g id="SVGID_142_"></g>
                    <path d="M-5.696,14.641 L2.81,-3.63 L17.965,3.425 L9.458,21.697 L-5.696,14.641 Z" id="Shape" opacity="0.282765858" fill="url(#linearGradient-79)" sketch:type="MSShapeGroup" mask="url(#mask-81)"></path>
                </g>
                <g id="Thumb" transform="translate(253.000000, 120.000000)">
                    <mask id="mask-83" sketch:name="SVGID_152_" fill="white">
                        <use xlink:href="#path-82"></use>
                    </mask>
                    <g id="SVGID_152_"></g>
                    <path d="M-16.804,14.254 L16.783,-12.135 L44.136,22.679 L10.55,49.068 L-16.804,14.254 Z" id="Shape" fill="url(#linearGradient-84)" sketch:type="MSShapeGroup" mask="url(#mask-83)"></path>
                    <g id="Thumb-Shadow" mask="url(#mask-83)">
                        <g transform="translate(1.000000, 3.000000)">
                            <mask id="mask-86" sketch:name="SVGID_155_" fill="white">
                                <use xlink:href="#path-85"></use>
                            </mask>
                            <g id="SVGID_155_"></g>
                            <path d="M33.936,28.44 L3.162,42.933 L-14,6.494 L16.774,-8 L33.936,28.44 Z" id="Shape" stroke="none" opacity="0.221781716" fill="url(#linearGradient-87)" fill-rule="evenodd" sketch:type="MSShapeGroup" mask="url(#mask-86)"></path>
                        </g>
                    </g>
                </g>
                <g id="RIght-Hand-Palm-Cover" transform="translate(258.000000, 128.000000)">
                    <mask id="mask-89" sketch:name="SVGID_160_" fill="white">
                        <use xlink:href="#path-88"></use>
                    </mask>
                    <g id="SVGID_160_"></g>
                    <path d="M40.385,2.162 L30.813,51.34 L-7.619,43.86 L1.953,-5.318 L40.385,2.162 Z" id="Shape" fill="url(#linearGradient-90)" sketch:type="MSShapeGroup" mask="url(#mask-89)"></path>
                </g>
                <g id="Helmet-Top-Right-Inner-Shadow" transform="translate(185.000000, 40.000000)">
                    <mask id="mask-92" sketch:name="SVGID_163_" fill="white">
                        <use xlink:href="#path-91"></use>
                    </mask>
                    <g id="SVGID_163_"></g>
                    <path d="M55.389,-18.847 L65.944,11.859 L6.898,32.156 L-3.657,1.45 L55.389,-18.847 Z" id="Shape" fill="url(#linearGradient-93)" sketch:type="MSShapeGroup" mask="url(#mask-92)"></path>
                </g>
                <g id="Face-Skin-Color" transform="translate(45.000000, 7.000000)">
                    <mask id="mask-95" sketch:name="SVGID_166_" fill="white">
                        <use xlink:href="#path-94"></use>
                    </mask>
                    <g id="SVGID_166_"></g>
                    <path d="M-57.032,12.425 L190.948,-52.722 L250.056,172.272 L2.076,237.419 L-57.032,12.425 Z" id="Shape" fill="url(#linearGradient-96)" sketch:type="MSShapeGroup" mask="url(#mask-95)"></path>
                </g>
                <g id="Mask-Knot-Top-Outer" transform="translate(0.000000, 92.000000)">
                    <mask id="mask-98" sketch:name="SVGID_178_" fill="white">
                        <use xlink:href="#path-97"></use>
                    </mask>
                    <g id="SVGID_178_"></g>
                    <path d="M6.814,-18.664 L69.199,4.983 L49.479,57.012 L-12.907,33.365 L6.814,-18.664 Z" id="Shape" fill="url(#linearGradient-99)" sketch:type="MSShapeGroup" mask="url(#mask-98)"></path>
                </g>
                <g id="Mask-Knot-Top-Highlight" transform="translate(6.000000, 92.000000)">
                    <mask id="mask-101" sketch:name="SVGID_181_" fill="white">
                        <use xlink:href="#path-100"></use>
                    </mask>
                    <g id="SVGID_181_"></g>
                    <path d="M1.572,-8.314 L43.768,0.901 L38.806,23.624 L-3.39,14.408 L1.572,-8.314 Z" id="Shape" fill="url(#linearGradient-102)" sketch:type="MSShapeGroup" mask="url(#mask-101)"></path>
                </g>
                <g id="Mask-Knot-Top-Loop-Hole" transform="translate(9.000000, 94.000000)">
                    <mask id="mask-104" sketch:name="SVGID_184_" fill="white">
                        <use xlink:href="#path-103"></use>
                    </mask>
                    <g id="SVGID_184_"></g>
                    <path d="M29.994,17.361 L-2.824,8.63 L2.728,-7.914 L35.545,0.817 L29.994,17.361 Z" id="Shape" fill="url(#linearGradient-105)" sketch:type="MSShapeGroup" mask="url(#mask-104)"></path>
                </g>
                <g id="Mask-Knot-Bottom-Outer" transform="translate(13.000000, 112.000000)">
                    <mask id="mask-107" sketch:name="SVGID_187_" fill="white">
                        <use xlink:href="#path-106"></use>
                    </mask>
                    <g id="SVGID_187_"></g>
                    <path d="M-16.842,1.42 L50.384,-8.834 L60.468,57.274 L-6.758,67.529 L-16.842,1.42 Z" id="Shape" fill="url(#linearGradient-108)" sketch:type="MSShapeGroup" mask="url(#mask-107)"></path>
                </g>
                <g id="Mask-Knot-Highlight" transform="translate(13.000000, 118.000000)">
                    <mask id="mask-110" sketch:name="SVGID_190_" fill="white">
                        <use xlink:href="#path-109"></use>
                    </mask>
                    <g id="SVGID_190_"></g>
                    <path d="M-15.72,10.996 L21.408,-15.073 L47.582,22.205 L10.454,48.274 L-15.72,10.996 Z" id="Shape" fill="url(#linearGradient-111)" sketch:type="MSShapeGroup" mask="url(#mask-110)"></path>
                </g>
                <g id="Mask-Knot-Loop-Hole" transform="translate(15.000000, 127.000000)">
                    <mask id="mask-113" sketch:name="SVGID_193_" fill="white">
                        <use xlink:href="#path-112"></use>
                    </mask>
                    <g id="SVGID_193_"></g>
                    <path d="M30.222,13.291 L7.542,31.609 L-11.229,9.38 L11.451,-8.938 L30.222,13.291 Z" id="Shape" fill="url(#linearGradient-114)" sketch:type="MSShapeGroup" mask="url(#mask-113)"></path>
                </g>
                <g id="Head" transform="translate(34.000000, 0.000000)">
                    <path d="M196.775,45.622 C184.935,21.64 160.106,8.664 131.098,8 C130.589,8.009 130.081,8.012 129.571,8.028 C158.138,8.973 182.519,21.924 194.22,45.622 C213.444,84.558 181.742,142.139 131.737,166.829 C116.636,174.285 101.836,178.03 88,178.562 C88.479,178.581 88.964,178.583 89.445,178.594 C103.598,178.226 118.785,174.485 134.293,166.829 C184.298,142.139 216,84.558 196.775,45.622" id="Shape" opacity="0.0824976679" fill="#010101" sketch:type="MSShapeGroup"></path>
                    <path d="M135.320502,103.93388 C99.7045025,115.18088 85.0715025,125.53588 70.0745025,134.59588 C55.0785025,143.65688 49.7675025,136.78288 49.1425025,134.59588 C48.5175025,132.40988 42.3805025,130.97988 40.1925025,113.79588 C38.0055025,96.61288 69.7295025,76.59288 123.402502,62.66388 C154.097502,54.69888 172.826502,49.25188 197.563502,47.03288 C197.352502,46.57088 197.140502,46.10788 196.913502,45.64988 C177.689502,6.71288 124.227502,-3.21712 74.2205025,21.47088 C24.2155025,46.16088 -0.737497548,97.73988 18.4865025,136.67688 C37.7115025,175.61288 84.4265025,191.54488 134.431502,166.85588 C165.808502,151.36388 189.975502,122.92188 198.879502,94.26188 C180.315502,94.98588 155.272502,97.63288 135.320502,103.93388" id="Face-Hood-Shadow-Large" opacity="0.166161381" fill="#5B1111" sketch:type="MSShapeGroup"></path>
                    <path d="M196.913911,45.6500681 C216.138911,84.5860681 184.436911,142.167068 134.431911,166.857068 C84.4259108,191.546068 37.7119108,175.614068 18.4869108,136.678068 C-0.738089222,97.7400681 24.2159108,46.1620681 74.2209108,21.4720681 C124.226911,-3.21793195 177.688911,6.71306805 196.913911,45.6500681 L196.913911,45.6500681 Z" id="Shape" stroke="#D0A675" sketch:type="MSShapeGroup"></path>
                    <mask id="mask-116" sketch:name="SVGID_196_" fill="white">
                        <use xlink:href="#path-115"></use>
                    </mask>
                    <g id="SVGID_196_"></g>
                    <path d="M158.604,-97.068 L299.925,147.692 L45.379,294.663 L-95.941,49.902 L158.604,-97.068 Z" id="Shape" fill="url(#linearGradient-117)" sketch:type="MSShapeGroup" mask="url(#mask-116)"></path>
                </g>
                <g id="Mask-Top-Inner-Shadow" transform="translate(67.000000, 41.000000)">
                    <g id="Clipped">
                        <mask id="mask-119" sketch:name="SVGID_199_" fill="white">
                            <use xlink:href="#path-118"></use>
                        </mask>
                        <g id="SVGID_199_"></g>
                        <path d="M165.188,-48.807 L199.069,66.007 L13.159,120.867 L-20.721,6.052 L165.188,-48.807 Z" id="Shape" fill="url(#linearGradient-120)" sketch:type="MSShapeGroup" mask="url(#mask-119)"></path>
                    </g>
                </g>
                <g id="Top-Forehead-Mask-Shadow" transform="translate(86.000000, 30.000000)">
                    <mask id="mask-122" sketch:name="SVGID_210_" fill="white">
                        <use xlink:href="#path-121"></use>
                    </mask>
                    <g id="SVGID_210_"></g>
                    <path d="M-8.343,2.764 L148.075,-34.073 L164.992,37.761 L8.574,74.598 L-8.343,2.764 Z" id="Shape" fill="url(#linearGradient-123)" sketch:type="MSShapeGroup" mask="url(#mask-122)"></path>
                </g>
                <g id="Left-Side-Vertical-Highlight" transform="translate(56.000000, 18.000000)">
                    <mask id="mask-125" sketch:name="Mask" fill="white">
                        <use xlink:href="#path-124"></use>
                    </mask>
                    <use id="Mask" opacity="0.137709888" fill="#FFFFFF" sketch:type="MSShapeGroup" transform="translate(18.167970, 56.747000) rotate(2.000000) translate(-18.167970, -56.747000) " xlink:href="#path-124"></use>
                    <rect id="SVGID_215_" opacity="0.152810168" fill="#FFFFFF" sketch:type="MSShapeGroup" mask="url(#mask-125)" x="-4" y="1" width="32.336" height="111.499"></rect>
                </g>
                <g id="Left-Head-Shadow" transform="translate(50.000000, 67.000000)">
                    <g id="Mask-+-Mask">
                        <mask id="mask-127" sketch:name="Mask" fill="white">
                            <use xlink:href="#path-126"></use>
                        </mask>
                        <use id="Mask" sketch:type="MSShapeGroup" transform="translate(16.677602, 41.423000) rotate(-1.000000) translate(-16.677602, -41.423000) " xlink:href="#path-126"></use>
                        <rect id="Rectangle-7" fill="#9B0303" sketch:type="MSShapeGroup" mask="url(#mask-127)" x="-34" y="-12" width="93" height="107"></rect>
                        <mask id="mask-129" sketch:name="Mask" fill="white">
                            <use xlink:href="#path-128"></use>
                        </mask>
                        <use id="Mask" sketch:type="MSShapeGroup" transform="translate(13.781589, 37.388570) rotate(5.000000) translate(-13.781589, -37.388570) " xlink:href="#path-128"></use>
                        <rect id="Rectangle-7-Copy" opacity="0.256063433" fill="#FBFBFB" sketch:type="MSShapeGroup" mask="url(#mask-129)" x="-34" y="-4" width="93" height="87">
                            <g transform="translate(12.500000, 39.500000) rotate(1.000000) translate(-12.500000, -39.500000) "></g>
                        </rect>
                    </g>
                </g>
                <g id="Left-Side-Head-Vertical-Shadow" transform="translate(59.000000, 20.000000)">
                    <mask id="mask-131" sketch:name="SVGID_217_" fill="white">
                        <use xlink:href="#path-130"></use>
                    </mask>
                    <use id="SVGID_217_" sketch:type="MSShapeGroup" xlink:href="#path-130"></use>
                    <path d="M33.102,0.052 L35.982,112.396 L-2.855,113.392 L-5.735,1.047 L33.102,0.052 Z" id="Shape" fill="url(#linearGradient-132)" sketch:type="MSShapeGroup" mask="url(#mask-131)"></path>
                </g>
                <g id="Mask-Forhead-Top-Highlight" transform="translate(69.000000, 13.000000)">
                    <mask id="mask-134" sketch:name="Mask" fill="white">
                        <use xlink:href="#path-133"></use>
                    </mask>
                    <use id="Mask" opacity="0.208430504" fill="#FFFFFF" sketch:type="MSShapeGroup" xlink:href="#path-133"></use>
                    <mask id="mask-136" sketch:name="SVGID_208_" fill="white">
                        <use xlink:href="#path-135"></use>
                    </mask>
                    <g id="SVGID_208_"></g>
                </g>
                <g id="Bottom-Face-Shadow" transform="translate(85.000000, 90.000000)">
                    <g id="Clipped" transform="translate(0.548000, 0.934000)">
                        <mask id="mask-138" sketch:name="SVGID_220_" fill="white">
                            <use xlink:href="#path-137"></use>
                        </mask>
                        <g id="SVGID_220_"></g>
                        <path d="M80.72,-35 L208.738,18.34 L160.019,135.267 L32,81.927 L80.72,-35 Z" id="Shape" fill="#590000" sketch:type="MSShapeGroup" mask="url(#mask-138)"></path>
                        <path d="M79.856,10.9567279 C44.24,22.2037279 29.601,32.5487279 14.61,41.6187279 C8.786,45.1437279 3.995,45.6107279 0.452,44.9787279 C0.465,44.9937279 0.479,45.0117279 0.492,45.0257279 C1.894,46.6547279 9.499,52.2407279 21.424,45.0257279 C36.414,35.9557279 51.054,25.6107279 86.67,14.3637279 C111.78,6.43472792 144.954,4.28872792 163.12,4.48672792 C163.504,3.44672792 163.868,2.40772792 164.209,1.36872792 C149.746,0.31472792 109.261,1.67072792 79.856,10.9567279" id="Bottom-Face-Mask-Opening-Highlight" opacity="0.161788713" fill="#FBFBFB" sketch:type="MSShapeGroup"></path>
                    </g>
                </g>
                <g id="Mouth-+-Shadows" transform="translate(138.000000, 109.000000)">
                    <g id="SVGID_232_" transform="translate(0.616000, 0.753000)">
                        <g id="Clipped">
                            <mask id="mask-140" sketch:name="SVGID_230_" fill="white">
                                <use xlink:href="#path-139"></use>
                            </mask>
                            <g id="SVGID_230_"></g>
                            <path d="M47.551,-16.247 L64.257,28.998 L7.322,50.021 L-9.384,4.776 L47.551,-16.247 Z" id="Shape" opacity="0.580631996" fill="url(#linearGradient-141)" sketch:type="MSShapeGroup" mask="url(#mask-140)"></path>
                        </g>
                        <g id="Shape" transform="translate(6.000000, 7.000000)">
                            <mask id="mask-143" sketch:name="Mask" fill="white">
                                <use xlink:href="#path-142"></use>
                            </mask>
                            <g id="Mask"></g>
                            <path d="M0.720981232,16.5215589 C0.720981232,16.5215589 1.61398123,16.7735589 3.20498123,17.1295589 C4.79098123,17.4995589 7.07098123,17.9765589 9.82798123,18.3655589 C12.5789812,18.7755589 15.8079812,19.1325589 19.2619812,19.1995589 C20.9879812,19.2215589 22.7689812,19.2045589 24.5669812,19.0615589 C26.3639812,18.9205589 28.1749812,18.6735589 29.9549812,18.3105589 C31.7339812,17.9455589 33.4759812,17.4305589 35.1169812,16.7635589 C35.8839812,16.4505589 36.7859812,16.0475589 37.5779812,15.6875589 C38.3309812,15.2695589 39.1069812,14.9395589 39.8179812,14.4705589 C41.2989812,13.6435589 42.5949812,12.6495589 43.7789812,11.6565589 C44.9339812,10.6335589 45.9369812,9.56455885 46.7649812,8.49355885 C48.4059812,6.33855885 49.4169812,4.25355885 50.0259812,2.75355885 C50.6229812,1.23355885 50.9639812,0.365558853 50.9639812,0.365558853 C50.9999812,0.270558853 51.1059812,0.223558853 51.2009812,0.258558853 C51.2849812,0.291558853 51.3319812,0.380558853 51.3149812,0.466558853 C51.3149812,0.466558853 51.2689812,0.696558853 51.1829812,1.12855885 C51.0949812,1.56155885 50.9689812,2.19755885 50.7459812,2.99655885 C50.5339812,3.79855885 50.2349812,4.76755885 49.8099812,5.85755885 C49.3929812,6.95255885 48.7649812,8.12655885 48.0029812,9.36555885 C47.2009812,10.5815589 46.1979812,11.8095589 45.0169812,12.9975589 C43.7859812,14.1215589 42.4299812,15.2695589 40.8729812,16.2055589 C40.1249812,16.7155589 39.2619812,17.1105589 38.4409812,17.5755589 C37.5949812,17.9725589 36.8389812,18.3405589 35.9029812,18.7275589 C34.1259812,19.4355589 32.2599812,19.9715589 30.3719812,20.3455589 C28.4849812,20.7305589 26.5739812,20.9425589 24.6959812,21.0405589 C22.8169812,21.1365589 20.9689812,21.1375589 19.1899812,21.0255589 C15.6299812,20.8295589 12.3539812,20.2845589 9.58498123,19.6935589 C6.81898123,19.0785589 4.55898123,18.4055589 2.98998123,17.9035589 C1.42598123,17.3845589 0.549981232,17.0225589 0.549981232,17.0225589 C0.413981232,16.9675589 0.348981232,16.8135589 0.402981232,16.6775589 C0.453981232,16.5515589 0.592981232,16.4865589 0.720981232,16.5215589" opacity="0.176072761" fill="#FAF1F1" sketch:type="MSShapeGroup" mask="url(#mask-143)"></path>
                        </g>
                    </g>
                </g>
                <g id="Left-Eye" transform="translate(97.000000, 81.000000)">
                    <path d="M0.711,3.309 L0.711,0.211 L31.374,1.825 L0.711,3.309 Z" id="Shape" fill="#000000" sketch:type="MSShapeGroup"></path>
                    <mask id="mask-145" sketch:name="SVGID_261_" fill="white">
                        <use xlink:href="#path-144"></use>
                    </mask>
                    <g id="SVGID_261_"></g>
                    <path d="M27.899,-4.022 L43.081,24.705 L11.971,39.006 L-3.211,10.279 L27.899,-4.022 Z" id="Shape" fill="url(#linearGradient-146)" sketch:type="MSShapeGroup" mask="url(#mask-145)"></path>
                    <g id="Left-Eyebrow" mask="url(#mask-145)">
                        <g transform="translate(-225.000000, -242.000000)">
                            <mask id="mask-148" sketch:name="SVGID_259_" fill="white">
                                <use xlink:href="#path-147"></use>
                            </mask>
                            <g id="SVGID_259_"></g>
                        </g>
                    </g>
                </g>
                <g id="Left-Eye---White" transform="translate(112.000000, 86.000000)">
                    <mask id="mask-150" sketch:name="SVGID_264_" fill="white">
                        <use xlink:href="#path-149"></use>
                    </mask>
                    <g id="SVGID_264_"></g>
                    <path d="M9.028,-2.094 L11.513,6.895 L0.866,10.17 L-1.619,1.181 L9.028,-2.094 Z" id="Shape" fill="url(#linearGradient-151)" sketch:type="MSShapeGroup" mask="url(#mask-150)"></path>
                </g>
                <g id="Right-Eye" transform="translate(178.000000, 48.000000)">
                    <path d="M24.839,2.415 L22.9,-7.10542736e-15 L0,20.454 L24.839,2.415 Z" id="Eyebrow" fill="#000000" sketch:type="MSShapeGroup"></path>
                    <mask id="mask-153" sketch:name="SVGID_269_" fill="white">
                        <use xlink:href="#path-152"></use>
                    </mask>
                    <g id="SVGID_269_"></g>
                    <path d="M-0.009,9.481 L8.901,41.523 L37.367,35.636 L28.457,3.593 L-0.009,9.481 Z" id="Shape" fill="url(#linearGradient-154)" sketch:type="MSShapeGroup" mask="url(#mask-153)"></path>
                </g>
                <g id="Right-Eye---White" transform="translate(194.000000, 56.000000)">
                    <mask id="mask-156" sketch:name="SVGID_272_" fill="white">
                        <use xlink:href="#path-155"></use>
                    </mask>
                    <g id="SVGID_272_"></g>
                    <path d="M-3.924,2.497 L1.474,15.025 L12.853,10.506 L7.455,-2.022 L-3.924,2.497 Z" id="Shape" fill="url(#linearGradient-157)" sketch:type="MSShapeGroup" mask="url(#mask-156)"></path>
                </g>
            </g>
        </g>
    </g>
</svg>