<svg width="302" height="323" viewBox="0 0 302 323" xmlns="http://www.w3.org/2000/svg" xmlns:xlink="http://www.w3.org/1999/xlink"><title>kickstart-logo</title><defs><path id="a" d="M5.08 8.792l-4.2 22.75c-.917 5.67 3.195 12.99 9.696 14.054.06-.012.768-.062 5.743-.263 6.487-.26 16.44-11.124 17.357-16.8l3.853-14.5c.916-5.675-3.623-11.128-10.14-12.18L18.54.42c-.738-.118-1.47-.175-2.19-.175-5.627 0-10.455 3.516-11.27 8.547"/><linearGradient x1="37.826%" y1="26.199%" x2="30.777%" y2="12.355%" id="b"><stop stop-color="#D9B78B" offset="0%"/><stop stop-color="#E4C79B" offset="17.8%"/><stop stop-color="#EED7AC" offset="41.18%"/><stop stop-color="#F5E0B6" offset="67.04%"/><stop stop-color="#F7E3B9" offset="100%"/></linearGradient><path id="d" d="M7.4 6.866C2.024 18.226.274 30.112.274 30.112c-.696 2.298.43 3.097 3.633 4.065 3.198.968 7.838-1.83 9.297-4.666l2.41-7.97c3.025-.943 5.838-3.735 7.22-7.6 2.06-5.752.293-12.06-4.203-13.25-.968-.257-1.86-.37-2.685-.37-5.863 0-8.17 5.757-8.544 6.546"/><linearGradient x1="37.001%" y1="59.387%" x2="67.336%" y2="37.212%" id="e"><stop stop-color="#010101" offset="0%"/><stop stop-color="#010101" offset="100%"/></linearGradient><path id="g" d="M7.4 6.866C2.024 18.226.274 30.112.274 30.112c-.696 2.298.43 3.097 3.633 4.065 3.198.968 7.838-1.83 9.297-4.666l2.41-7.97c3.025-.943 5.838-3.735 7.22-7.6 2.06-5.752.293-12.06-4.203-13.25-.968-.257-1.86-.37-2.685-.37-5.863 0-8.17 5.757-8.544 6.546"/><linearGradient x1="44.961%" y1="49.747%" x2="8.318%" y2="48.006%" id="h"><stop stop-color="#D9B78B" offset="0%"/><stop stop-color="#E4C79B" offset="17.8%"/><stop stop-color="#EED7AC" offset="41.18%"/><stop stop-color="#F5E0B6" offset="67.04%"/><stop stop-color="#F7E3B9" offset="100%"/></linearGradient><path id="j" d="M.287 17.44c.663.367 1.364.67 2.105.885 2.63-.566 6.255-3.76 4.764-17.7 0 0 .255 16.766-6.87 16.815"/><linearGradient x1="54.197%" y1="15.857%" x2="44.593%" y2="88.832%" id="k"><stop stop-color="#010101" offset="0%"/><stop stop-color="#010101" offset="100%"/></linearGradient><path id="m" d="M.287 15.604c.663.33 1.364.6 2.105.792C5.022 15.89 8.647 13.03 7.156.558c0 0 .255 15.002-6.87 15.046"/><path id="o" d="M22.643 5.312S11.553 22.13 6.345 37.974c-.34 1.03-.687 2.06-1.042 3.083C4.837 42.412.578 56.634.578 56.634s5.47-9.738 16.05-6.145c5.096 1.728 19.147 3.084 29.407 1.216 4.755-4.972 9.563-11.346 14.257-19.525C74.972 6.604 63.504.595 49.488.594c-12.423 0-26.845 4.72-26.845 4.72"/><linearGradient x1="-.752%" y1="43.392%" x2="32.95%" y2="47.826%" id="p"><stop stop-color="#FF0101" offset="0%"/><stop stop-color="#600000" offset="100%"/></linearGradient><path id="r" d="M4.425 16.107C-3.425 30.385 1.177 47.99 14.707 55.43c13.53 7.437 30.86 1.894 38.71-12.385 7.853-14.277 3.25-31.883-10.28-39.322C39.058 1.48 34.638.418 30.233.418c-10.21 0-20.324 5.714-25.81 15.69"/><linearGradient x1="32.918%" y1="25.84%" x2="54.186%" y2="55.99%" id="s"><stop stop-color="#D00202" offset="0%"/><stop stop-color="#410000" offset="100%"/></linearGradient><path id="u" d="M.905 47.65h.003c-.008 0-.014.136-.012.166.545 10.878 6.29 20.178 19.84 23.597 13.55 3.417 24.728-2.39 29.225-11.708.014-.026.018-.055.026-.055h.004l16.486-44.413L7.4.577.904 47.65z"/><linearGradient x1="-3.217%" y1="36.739%" x2="53.685%" y2="54.162%" id="v"><stop stop-color="#FF0101" offset="0%"/><stop stop-color="#520000" offset="100%"/></linearGradient><path id="x" d="M4.155 19.793s-13.2 34.01 10.623 83.97c8.957 18.782 17.993 44.778 61.82 48.468 28.694 2.417 50.38-9.077 50.38-9.077s1.905-101.41-36.056-140.025C89.105 1.28 80.382.27 69.115.27 42.24.27.88 6.01 4.155 19.793"/><linearGradient x1="4.757%" y1="50.033%" x2="57.438%" y2="49.043%" id="y"><stop stop-color="#F00" offset="0%"/><stop stop-color="#700000" offset="75.195%"/><stop stop-color="#4F0000" offset="100%"/></linearGradient><path id="A" d="M.324 30.662c0 16.824 9.33 30.463 20.865 30.463 1.072 0 2.29-.12 3.318-.347l36.04-4.812V5.356L24.496.546c-1.03-.228-2.17-.347-3.24-.347C9.718.2.323 13.837.323 30.66"/><linearGradient x1="53.696%" y1="14.911%" x2="37.839%" y2="44.241%" id="B"><stop stop-color="#CC0202" offset="0%"/><stop stop-color="#4F0000" offset="100%"/></linearGradient><path id="D" d="M2.21 19.18c-5.612 15.3 4.67 33.608 18.27 38.06 6.22 2.037 20.226-4.95 25.835-20.247 5.613-15.298.616-31.63-5.544-35.065-.78-.435-1.684-.565-2.538-.77-2.038-.49-4.207-.732-6.437-.732C20.04.426 6.632 7.126 2.21 19.18"/><linearGradient x1="50%" y1="16.499%" x2="38.232%" y2="58.165%" id="E"><stop stop-color="#F96E6E" offset="0%"/><stop stop-color="#660101" offset="48.657%"/><stop stop-color="#530101" offset="100%"/></linearGradient><path id="G" d="M3.11 21.712C-2.5 37.01 2.293 52.84 13.82 57.068c11.528 4.228 25.423-4.745 31.033-20.042C50.465 21.728 45.67 5.9 34.143 1.67c-.72-.265-1.45-.477-2.186-.64-1.237-.273-2.49-.406-3.753-.406C18.196.624 7.782 8.978 3.11 21.712"/><linearGradient x1="58.732%" y1="7.704%" x2="58.732%" y2="63.791%" id="H"><stop stop-color="#E00101" offset="0%"/><stop stop-color="#5D0000" offset="100%"/></linearGradient><path id="J" d="M2.344 21.088C-.55 28.98-.67 37.008 1.47 43.518-.224 37.27.065 29.81 2.758 22.47 8.02 8.128 20.56-.655 31.605 1.788c.736.162 1.466.375 2.186.64 5.58 2.047 9.58 6.818 11.587 12.926-1.837-6.768-6.006-12.108-12-14.308-.72-.265-1.45-.477-2.186-.64C29.956.133 28.7 0 27.44 0 17.43 0 7.018 8.353 2.344 21.088"/><linearGradient x1="32.896%" y1="61.049%" x2="24.105%" y2="92.351%" id="K"><stop stop-color="#FFF" offset="0%"/><stop stop-color="#480101" offset="100%"/></linearGradient><path id="M" d="M.845.19h109.773v46.03H.845z"/><path id="O" d="M34.673 7.48C7.19 14.862 1.24 28.3.72 37.7c.402.875 1.15 3.08 2.676 4.91.25 2.053 1.376 4.665 2.09 5.272.712.61 3.325-.532 3.325-.532-.03-.163-3.046-16.113 29.775-24.424 37.112-9.398 68.885-7.54 76.936-6.85-.77-4.744-1.653-9.56-2.672-14.39-4.582-.624-12.725-1.487-23.46-1.487-14.367 0-33.38 1.547-54.715 7.28"/><linearGradient x1="-5.457%" y1="86.644%" x2="61.058%" y2="50%" id="P"><stop stop-color="#E00101" offset="0%"/><stop stop-color="#3D0000" offset="100%"/></linearGradient><path id="R" d="M.765 22.84l3.047-.488C3.785 22.204 1.298 9.025 25.456.382 1.022 8.056.562 20.23.766 22.84"/><linearGradient x1="67.889%" y1="33.93%" x2="36.148%" y2="62.577%" id="S"><stop stop-color="#010101" offset="0%"/><stop stop-color="#010101" offset="100%"/></linearGradient><path id="U" d="M.82.383L5.3 15.857c14.94-.842 25.937-.145 30.22.222-.252-1.567-.072-5.408-1.077-6.776.384-1.796.214-2.008-.206-4.12-.22-1.117-.768-2.563-1.39-3.495C28.268 1.063 20.125.2 9.392.2c-2.697 0-5.557.055-8.57.18"/><linearGradient x1="133.722%" y1="50.259%" x2="38.909%" y2="50.259%" id="V"><stop stop-color="#F75050" offset="0%"/><stop stop-color="#410000" offset="100%"/></linearGradient><path d="M82.412.38L82.335.38c.026 0 .05.002.077.003M6.198 15.74C1.306 20.544.363 25.208.363 25.208 12.973-2.13 79.755.275 82.333.377 78.02.2 73.947.118 70.092.118 25.418.116 10.704 11.323 6.2 15.74" id="X"/><linearGradient x1="70.232%" y1="41.835%" x2="35.967%" y2="55.689%" id="Y"><stop stop-color="#010101" offset="0%"/><stop stop-color="#010101" offset="100%"/></linearGradient><path d="M82.412.38L82.335.38c.026 0 .05.002.077.003M6.198 15.74C1.306 20.544.363 25.208.363 25.208 12.973-2.13 79.755.275 82.333.377 78.02.2 73.947.118 70.092.118 25.418.116 10.704 11.323 6.2 15.74" id="aa"/><linearGradient x1="17.693%" y1="52.332%" x2="108.947%" y2="26.446%" id="ab"><stop offset="0%"/><stop stop-color="#666" offset="100%"/></linearGradient><path d="M2.69 30.41c2.217 1.87 5.358 1.497 7.48-.843 2.135-2.352 2.1-5.402-.115-7.27-2.216-1.868-5.357-1.494-7.49.858-2.124 2.34-2.09 5.388.126 7.256zm5.823-6.413c1.367 1.152 1.57 2.967.27 4.4-1.3 1.43-3.182 1.467-4.55.315-1.377-1.162-1.58-2.955-.28-4.387 1.3-1.43 3.18-1.49 4.56-.328zm10.414-6.26l-7.59-1.623-1.798 1.44L15.57 25l1.747-1.402-3.933-4.855 7.846 1.715 1.686-1.353-6.03-7.443-1.748 1.402 3.79 4.675zm6.335-3.656l4.43-2.5-.837-1.592-4.43 2.5-.947-1.795 4.527-2.555-.84-1.592-6.474 3.654 4.476 8.496 6.475-3.653-.838-1.593-4.527 2.554-1.013-1.923zm13.71-5.24l-6.428-3.976-2.126.843 3.07 9.17 2.068-.82-2.002-5.98 6.633 4.144 1.995-.79-3.07-9.17-2.068.82 1.93 5.76zm4.293-1.81c.38 2.93 2.882 4.557 5.928 3.914 3.06-.646 5.015-3.216 4.634-6.145-.382-2.93-2.883-4.557-5.944-3.91-3.046.644-5 3.213-4.618 6.14zm8.35-1.763c.235 1.807-.797 3.447-2.66 3.84-1.865.394-3.243-.737-3.478-2.544-.237-1.82.78-3.443 2.645-3.837 1.864-.394 3.255.72 3.492 2.54zM61.3.35l-4.76.203-.493 9.944 2.165-.092.175-3.533 1.587-.068 1.823 3.45 2.486-.105-2.1-3.692c1.11-.3 2.287-1.288 2.374-3.048.092-1.85-1.138-3.15-3.258-3.06zm-.413 1.877c.868-.037 1.5.442 1.458 1.277-.042.835-.723 1.37-1.592 1.407l-2.273.098.133-2.684 2.273-.097zM74.934 1.5L66.932.85l-.33 1.86 2.933.238-1.434 8.065 2.152.175 1.434-8.065 2.918.237.33-1.86zm7.887 5.837l-4.635-.84 1.075-3.852-2.09-.38-2.734 9.803 2.09.38 1.147-4.115 4.634.84-1.15 4.117 2.105.382L86 3.867l-2.104-.38-1.074 3.85z" id="ad"/><linearGradient x1="31.043%" y1="66.927%" x2="84.729%" y2="13.129%" id="ae"><stop stop-color="#FFF" offset="0%"/><stop stop-color="#202026" offset="100%"/></linearGradient><path id="ag" d="M.48 34.996S4.045 9.81 51.34.79C51.343.79-.063 8.008.48 34.997"/><linearGradient x1="7.214%" y1="58.235%" x2="57.689%" y2="32.276%" id="ah"><stop stop-color="#010101" offset="0%"/><stop stop-color="#010101" stop-opacity=".333" offset="100%"/></linearGradient><path id="aj" d="M52.643.704C45.788.762 17.417 1.897.1 8.464c0 0 40.124-9.79 74.874-2.626 0 0-8.29-5.136-21.865-5.136-.156 0-.312 0-.467.002"/><linearGradient x1="26.41%" y1="44.035%" x2="66.111%" y2="53.992%" id="ak"><stop stop-color="#010101" offset="0%"/><stop stop-color="#010101" offset="100%"/></linearGradient><path id="am" d="M34.673 7.48C7.19 14.862 1.24 28.3.72 37.7l.17.306C1.406 28.605 11.4 14.963 38.88 7.58c36.593-9.832 63.133-5.46 74.344-3.98-.13-.637-.243-1.273-.378-1.91C108.266 1.063 100.123.2 89.388.2 75.022.2 56.01 1.748 34.674 7.48"/><linearGradient x1="5.478%" y1="65.503%" x2="92.708%" y2="32.566%" id="an"><stop stop-color="#FFF" offset="0%"/><stop stop-color="#610505" offset="75.836%"/><stop stop-color="#FFF" offset="100%"/></linearGradient><path id="ap" d="M1 36.05c19.613 2.527 41.577.1 64.765-8.31C76.278 23.925 86.427 18.923 96 13.022c-1.936-2.648-3.995-5.12-6.193-7.373-1.798-1.843-10.43-2.85-21.58-2.85-26.6 0-67.53 5.724-64.29 19.46 0 0-1.893 4.937-2.937 13.79z"/><linearGradient x1="-.731%" y1="65.104%" x2="59.488%" y2="47.25%" id="aq"><stop stop-color="#540202" offset="0%"/><stop stop-color="#270000" offset="100%"/></linearGradient><path id="as" d="M52.392 3.686C37.527 6.34 15.218 10.363 6.19 14.69c-9.03 4.325-9.464 51.492 22.46 40.924 14.71-4.87 41.885-16.647 49.85-24.724 12.002-12.172 3.346-17.178 2.403-24.115C80.268 2.098 76.79.63 71.91.63c-5.434 0-12.608 1.823-19.518 3.056"/><linearGradient x1="50%" y1="7.778%" x2="50%" y2="45.948%" id="at"><stop stop-color="#FF0303" offset="0%"/><stop stop-color="#4F0101" offset="100%"/></linearGradient><path id="av" d="M15.546 5.18L1.673 29.848c-2.708 4.818-.42 11.244 5.11 14.355l7.512 4.223c5.53 3.11 12.21 1.728 14.92-3.09l9.63-19.027c.612-1.088 1.073-2.552 1.358-4.236.318-5.692-1.062-12.667-4.828-16.808l-4.307-3.77C29.453.583 27.678.18 25.896.18c-4.012.003-8.055 2.054-10.35 5"/><linearGradient x1="59.103%" y1="38.756%" x2="79.326%" y2="13.843%" id="aw"><stop stop-color="#D9B78B" offset="0%"/><stop stop-color="#E4C79B" offset="17.8%"/><stop stop-color="#EED7AC" offset="41.18%"/><stop stop-color="#F5E0B6" offset="67.04%"/><stop stop-color="#F7E3B9" offset="100%"/></linearGradient><path id="ay" d="M.97 17.745c8.348-7.1 9.604-13.33 8.848-16.596L9.07.493c-.105-.06-.212-.117-.32-.172C11.298 5.864.97 17.745.97 17.745"/><linearGradient x1="8.079%" y1="134.732%" x2="73.032%" y2="4.392%" id="az"><stop stop-color="#010101" offset="0%"/><stop stop-color="#010101" offset="100%"/></linearGradient><path id="aB" d="M.97 17.745c8.348-7.1 9.604-13.33 8.848-16.596L9.07.493c-.105-.06-.212-.117-.32-.172C11.298 5.864.97 17.745.97 17.745"/><path id="aD" d="M4.944.767c-3.266.724-4.45 1.436-3.928 3.78 0 0 .184 12.26 5.356 23.718 1.2 2.656 7.083 8.006 10.732 7.004 4.486-1.233 9.732-6.75 8.115-12.64-1.09-3.96-6.61-7.21-9.553-8.38l-1.804-8.13C12.743 3.474 9.048.663 5.94.663c-.34 0-.673.034-.996.105"/><linearGradient x1="42.804%" y1="55.702%" x2="66.693%" y2="37.012%" id="aE"><stop stop-color="#D9B78B" offset="0%"/><stop stop-color="#E4C79B" offset="17.8%"/><stop stop-color="#EED7AC" offset="41.18%"/><stop stop-color="#F5E0B6" offset="67.04%"/><stop stop-color="#F7E3B9" offset="100%"/></linearGradient><path id="aG" d="M.115 2.733S.3 14.993 5.47 26.45c1.2 2.656 7.084 8.006 10.733 7.004 2.334-.64 4.072-2.516 4.986-4.992-.98 1.47-2.336 2.545-3.99 3-3.65 1.002-9.533-4.348-10.732-7.004C1.294 13 1.11.74 1.11.74 1.05.47 1.02.23 1.006 0 .1.58-.185 1.382.115 2.733"/><linearGradient x1="49.072%" y1="50.514%" x2="24.037%" y2="61.611%" id="aH"><stop stop-color="#010101" offset="0%"/><stop stop-color="#010101" offset="100%"/></linearGradient><path id="aJ" d="M.816 19.72c10.32 25.782 26.89 7.09 26.89 7.09S31.95 17.58 28.73.52C19.6 8.83.816 19.72.816 19.72"/><linearGradient x1="71.661%" y1="15.339%" x2="50%" y2="75.314%" id="aK"><stop stop-color="#F91818" offset="0%"/><stop stop-color="#320000" offset="100%"/></linearGradient><path id="aM" d="M.4 6.654c0 3.645 13.764 6.6 30.743 6.6 16.98 0 30.743-2.955 30.743-6.6 0-3.644-13.764-6.6-30.743-6.6C14.163.055.4 3.01.4 6.655"/><linearGradient x1="30.485%" y1="-27.645%" x2="39.531%" y2="8.265%" id="aN"><stop stop-color="#CF2727" offset="0%"/><stop stop-color="#560000" offset="100%"/></linearGradient><path id="aP" d="M63.03 14.048C13.027 38.738-11.925 90.318 7.3 129.253c19.224 38.937 65.94 54.87 115.944 30.18 50.006-24.69 81.707-82.27 62.482-121.207-12.16-24.628-38.01-37.65-68.027-37.65-17.44 0-36.29 4.4-54.666 13.472"/><linearGradient x1="35.752%" y1="54.418%" x2="80.401%" y2="38.957%" id="aQ"><stop stop-color="#D9B78B" offset="0%"/><stop stop-color="#E4C79B" offset="17.8%"/><stop stop-color="#EED7AC" offset="41.18%"/><stop stop-color="#F5E0B6" offset="67.04%"/><stop stop-color="#F7E3B9" offset="100%"/></linearGradient><path id="aS" d="M5.408 5.723C1.256 20.663.388 25.307.388 25.307s-.732 6.93 11.38 9.875c12.113 2.945 36.802 1.232 36.802 1.232l8.066-25.41S31.534.222 16.373.222c-5.6 0-9.845 1.47-10.965 5.5"/><linearGradient x1="17.392%" y1="36.674%" x2="38.831%" y2="45.49%" id="aT"><stop stop-color="#FC0202" offset="0%"/><stop stop-color="#400000" offset="100%"/></linearGradient><path id="aV" d="M.02 4.262c-.312 3.47 8.24 7.56 19.274 9.182 11.156 1.64 20.615.14 21.128-3.356.25-1.685-1.687-3.24-4.983-4.72C27.41 2.757 17.73.224 10.382.224 5.52.225 1.683 1.333.02 4.262"/><linearGradient x1="13.507%" y1="38.169%" x2="82.399%" y2="60.385%" id="aW"><stop stop-color="#C23333" offset="0%"/><stop stop-color="#450000" offset="100%"/></linearGradient><path id="aY" d="M.333 2.308C.055 4.2 7.003 6.792 15.857 8.094c8.85 1.302 16.252.822 16.53-1.07.28-1.895-6.795-3.818-15.52-5.788C13.122.39 9.956.05 7.426.05 2.985.05.51 1.1.333 2.31"/><linearGradient x1="101.198%" y1="70.5%" x2="65.13%" y2="55.934%" id="aZ"><stop stop-color="#FF0202" offset="0%"/><stop stop-color="#4F0000" offset="100%"/></linearGradient><path id="bb" d="M1.48 38.295c9.598 12.18 12.83 15.624 12.83 15.624s5.158 4.685 14.693-3.346c9.533-8.032 22.742-28.96 22.742-28.96L36.015.09S-8.12 26.116 1.48 38.295"/><linearGradient x1="25.057%" y1="53.85%" x2="39.353%" y2="51.643%" id="bc"><stop stop-color="#F8383B" offset="0%"/><stop stop-color="#700000" offset="100%"/></linearGradient><path id="be" d="M26.52.19C18.843 5.43 8.49 13.26 3.326 20.474 2.095 22.41 1.14 24.228.51 25.84c-.707 2.383-.505 4.583.97 6.455.034.043.065.084.1.126 3.503.684 11.057-4.066 18.126-11.652 8.01-8.6 12.354-17.572 9.7-20.043-.458-.427-1.098-.628-1.88-.628-.315 0-.65.032-1.005.094"/><linearGradient x1="95.227%" y1="20.913%" x2="27.576%" y2="79.354%" id="bf"><stop stop-color="#D80C0C" offset="0%"/><stop stop-color="#CA0B0B" offset="0%"/><stop stop-color="#BF0A0A" offset="42.193%"/><stop stop-color="#550202" offset="100%"/></linearGradient><path id="bh" d="M6.736 8.226C1.868 13.452-.844 18.84.682 20.26c1.524 1.42 6.707-1.665 11.575-6.89 4.868-5.225 7.578-10.612 6.053-12.033-.25-.234-.6-.345-1.032-.345-2.19 0-6.475 2.87-10.542 7.234"/><linearGradient x1="119.316%" y1="39.457%" x2="90.502%" y2="68.537%" id="bi"><stop stop-color="#A40101" offset="0%"/><stop stop-color="#600000" offset="100%"/></linearGradient><path id="bk" d="M81.817 9.994c-58.6 21.104-93.06 74.437-76.967 119.12 16.092 44.683 65.653 67.482 124.254 46.377 40.63-14.632 75.07-49.58 86.122-83.272-14.462-1.054-54.947.302-84.353 9.59-35.616 11.245-50.256 21.59-65.245 30.66-11.926 7.216-19.53 1.63-20.933 0-1.485-1.723-7.81-9.684-9.998-26.868-2.188-17.184 29.07-38.418 82.745-52.346 45.92-11.917 83.513-8.32 95.247-6.783C199.98 17.263 168.54 1.003 131.286 1 115.512 1 98.7 3.913 81.817 9.994"/><linearGradient x1="43.796%" y1="28.052%" x2="58.847%" y2="69.144%" id="bl"><stop stop-color="#DD0606" offset="0%"/><stop stop-color="#890000" offset="100%"/></linearGradient><path id="bn" d="M83.59 8.847C29.916 22.775-1.343 44.01.844 61.193c.51 4 1.245 7.494 2.09 10.533-.486-2.176-.91-4.545-1.238-7.126-2.188-17.184 29.07-38.418 82.745-52.346 45.92-11.917 83.513-8.32 95.247-6.783-.52-1.19-1.074-2.36-1.654-3.508-5.31-.67-14.986-1.628-27.784-1.628-17.46 0-40.73 1.783-66.663 8.513"/><linearGradient x1="45.705%" y1="33.312%" x2="46.867%" y2="38.082%" id="bo"><stop stop-color="#A60101" offset="0%"/><stop stop-color="#8F0101" offset="100%"/></linearGradient><path id="bq" d="M.382 39.816C60.465 3.656 117.002.83 156.266 8.016c-1.473-2.39-3.086-4.672-4.832-6.845-5.766-.31-11.377-.46-16.82-.46C45.912.71.383 39.817.383 39.817"/><linearGradient x1="-44.132%" y1="85.216%" x2="95.665%" y2="32.704%" id="br"><stop stop-color="#FA3030" offset="0%"/><stop stop-color="#890101" offset="100%"/></linearGradient><path id="bt" d="M20.905 112.494c-.076-.087-.166-.195-.265-.313l-.037-.044c-.1-.122-.212-.263-.333-.417-.016-.022-.032-.04-.048-.063-.127-.163-.264-.344-.41-.542l-.028-.04c-2.062-2.817-5.85-9.14-8.01-20.084v-.007c-4.58-17.328-3.607-35.185-.98-49.98C12.73 30.102 22.978 12.192 34.337 1 27.353 5.033 20.89 9.555 15.018 14.468c-7.86 11.51-12.083 24.877-12.5 29.74-4.187 48.833 18.387 68.286 18.387 68.286"/><path id="bv" d="M4.225 1s-9.813 45.997 28.13 80.846c0 0-43.305-21.243-28.13-80.846"/><path id="bx" d="M31.18 79.548S-18.598 54.556.92-4.772c0 0-18.358 49.51 30.26 84.32z"/><path id="bz" d="M13.81 14.442C5.95 25.952 1.724 39.32 1.31 44.182-2.88 93.014 19.695 112.47 19.695 112.47c-.076-.088-.166-.196-.265-.316l-.036-.044c-.1-.123-.212-.263-.334-.417-.015-.022-.03-.04-.047-.062-.127-.162-.263-.343-.41-.54-.01-.014-.018-.028-.028-.04-2.062-2.818-5.85-9.142-8.01-20.086v-.008c-4.58-17.328-3.607-35.184-.98-49.98 1.936-10.9 12.183-28.81 23.54-40.002C26.146 5.007 19.68 9.53 13.81 14.442"/><linearGradient x1="86.735%" y1="-11.788%" x2="36.129%" y2="79.94%" id="bA"><stop stop-color="#FA5050" offset="0%"/><stop stop-color="#7C0101" offset="100%"/></linearGradient><path id="bC" d="M.887 54.813C50.522-1.4 122.213 4.803 158.682 7.73c-3.262-2.625-6.776-4.997-10.513-7.108C25.894 2.82.886 54.812.886 54.812"/><path id="bD" d="M.887.62h157.795v54.19H.887z"/><path id="bE" d="M102.542 5.402c23.125-3.613 46.35-4.078 56.573-3.332-11.053 33.692-45.492 68.64-86.12 83.273-7.285 2.623-14.43 4.567-21.387 5.876 8.554-1.246 17.416-3.46 26.496-6.73 40.63-14.632 75.07-49.58 86.122-83.272-2.615-.19-6.083-.302-10.18-.302-13.102 0-32.66 1.14-51.504 4.486"/><path id="bG" d="M.97 18.853C52.514 32.823 53.9.953 53.9.953 38.73 18.342.97 18.852.97 18.852"/><linearGradient x1="63.686%" y1="55.775%" x2="57.318%" y2="37.728%" id="bH"><stop stop-color="#860101" offset="0%"/><stop stop-color="#4D0101" offset="100%"/></linearGradient><path id="bJ" d="M.384.247H54v26.868H.384z"/><path id="bL" d="M7.27 5.65c-.41 3.323.176 7.195 1.876 10.96 3.68 8.155 11.18 12.724 16.755 10.208 5.574-2.516 7.11-11.166 3.433-19.318-.29-.64-.602-1.257-.934-1.85H7.27z"/><linearGradient x1="43.883%" y1="0%" x2="68.283%" y2="79.886%" id="bM"><stop stop-color="#8C7375" offset="0%"/><stop stop-color="#241719" offset="100%"/></linearGradient><path id="bO" d="M.71.65h2380v1280H.71z"/><path id="bP" d="M.107.65c.126.39.277.78.453 1.17 1.596 3.54 4.672 5.606 6.86 4.617C9.114 5.674 9.787 3.314 9.27.65H.108z"/><linearGradient x1="35.269%" y1="-6.147%" x2="49.593%" y2="49.343%" id="bQ"><stop stop-color="#A4A0BD" offset="0%"/><stop stop-color="#FFF" offset="100%"/></linearGradient><path id="bS" d="M7.708 21.138c.053.27.11.544.17.815 2.056 9.162 8.136 15.278 13.58 13.663C26.903 34 29.65 25.264 27.596 16.098c-.71-3.166-1.9-5.97-3.38-8.214L7.708 21.138z"/><linearGradient x1="50%" y1="12.51%" x2="58.217%" y2="100%" id="bT"><stop stop-color="#5E494B" offset="0%"/><stop stop-color="#463537" offset="100%"/></linearGradient><path id="bV" d="M.24 6.288c1.018 3.55 3.295 5.872 5.295 5.28 2.138-.635 3.154-4.377 2.262-8.354-.192-.856-.456-1.653-.775-2.37L.24 6.287z"/><linearGradient x1="33.251%" y1="11.264%" x2="53.751%" y2="58.094%" id="bW"><stop stop-color="#A4A0BD" offset="0%"/><stop stop-color="#FFF" offset="100%"/></linearGradient></defs><g fill="none" fill-rule="evenodd"><g transform="translate(103 199)"><mask id="c" fill="#fff"><use xlink:href="#a"/></mask><path d="M7.66 60.993L-18.18 9.315 30.75-15.15l25.838 51.68-48.93 24.463z" fill="url(#b)" mask="url(#c)"/></g><g transform="translate(99 196)"><mask id="f" fill="#fff"><use xlink:href="#d"/></mask><path d="M-17.05 12.564l33.042-24.33L41.52 22.9 8.478 47.233-17.05 12.564z" fill="url(#e)" mask="url(#f)"/></g><g transform="translate(99 196)"><mask id="i" fill="#fff"><use xlink:href="#g"/></mask><path d="M24.8 36.683L-2.54 35.016l2.21-36.234L27.006.45 24.8 36.682z" fill="url(#h)" mask="url(#i)"/></g><g transform="translate(110 226)"><mask id="l" fill="#fff"><use xlink:href="#j"/></mask><path d="M9.996.728L8.598 18.962l-9.66-.74L.334-.015l9.66.742z" fill="url(#k)" mask="url(#l)"/></g><g transform="rotate(-16 870.094 -294.25)"><mask id="n" fill="#fff"><use xlink:href="#m"/></mask><path d="M9.996.65L8.598 16.967l-9.66-.663L.334-.013l9.66.664z" fill="url(#k)" mask="url(#n)"/></g><g transform="translate(102 156)"><mask id="q" fill="#fff"><use xlink:href="#o"/></mask><path d="M1.462-7.473L81.048 1.26l-6.96 63.44L-5.5 55.967l6.96-63.44z" fill="url(#p)" mask="url(#q)"/></g><g transform="translate(142 264)"><mask id="t" fill="#fff"><use xlink:href="#r"/></mask><path d="M39.77-29.164l51.806 71.276-73.5 50.337-51.806-71.277 73.5-50.337z" fill="url(#s)" mask="url(#t)"/></g><g transform="translate(144 241)"><mask id="w" fill="#fff"><use xlink:href="#u"/></mask><path d="M5.043-15.388l79.51 20.662-22.225 85.52-79.51-20.662 22.225-85.52z" fill="url(#v)" mask="url(#w)"/></g><g transform="translate(118 139)"><mask id="z" fill="#fff"><use xlink:href="#x"/></mask><path d="M-15.744 1.015L132.216-9.29 143.585 153.9-4.378 164.208-15.744 1.015z" fill="url(#y)" mask="url(#z)"/></g><g transform="translate(197 226)"><mask id="C" fill="#fff"><use xlink:href="#A"/></mask><path d="M86.305 14.396l-39.79 72.188-71.947-39.656 39.79-72.19 71.947 39.658z" fill="url(#B)" mask="url(#C)"/></g><g transform="translate(233 224)"><mask id="F" fill="#fff"><use xlink:href="#D"/></mask><path d="M81.16 26.494L27.42 86.76l-60.055-53.55 53.74-60.268 60.056 53.552z" fill="url(#E)" mask="url(#F)"/></g><g transform="translate(239 224)"><mask id="I" fill="#fff"><use xlink:href="#G"/></mask><path d="M49.92-4.725l6.673 65.396-58.548 5.975L-8.627 1.25 49.92-4.726z" opacity=".99" fill="url(#H)" mask="url(#I)"/><g transform="translate(1)" mask="url(#I)"><mask id="L" fill="#fff"><use xlink:href="#J"/></mask><use xlink:href="#J"/><path d="M54.598 2.47L42.445 54.553-11 42.082 1.153-10 54.598 2.47z" opacity=".282" fill="url(#K)" mask="url(#L)"/></g></g><g transform="translate(109 213)"><mask id="N" fill="#fff"><use xlink:href="#M"/></mask><path d="M59.82 15.916C94.332 7.646 124.465 8.093 137 8.79c-.776-4.79-1.68-9.674-2.733-14.578C120.483-7.21 91.12-8.542 55.687.467 32.54 6.352 23.853 16.08 21 24.547c.653 1.393 1.327 2.796 2.043 4.215 1.67 3.315 3.347 6.856 5.226 10.458-.026-3.787 2.22-16.276 31.55-23.304" opacity=".223" fill="#010101" mask="url(#N)"/></g><g transform="translate(128 204)"><mask id="Q" fill="#fff"><use xlink:href="#O"/></mask><path d="M.728-.725l115.183.93-.396 49.213L.33 48.49.73-.725z" fill="url(#P)" mask="url(#Q)"/></g><g transform="translate(133 229)"><mask id="T" fill="#fff"><use xlink:href="#R"/></mask><path d="M36.625 12.762l-24.893 22.46-22.34-24.762L14.284-12l22.34 24.762z" opacity=".567" fill="url(#S)" mask="url(#T)"/></g><g transform="translate(208 204)"><mask id="W" fill="#fff"><use xlink:href="#U"/></mask><path fill="url(#V)" mask="url(#W)" d="M.82.202h34.7V16.08H.82z"/></g><g transform="translate(137 216)"><mask id="Z" fill="#fff"><use xlink:href="#X"/></mask><path d="M90 22.907L7.267 47.984-7.226.17l82.733-25.077L90 22.907z" opacity=".676" fill="url(#Y)" mask="url(#Z)"/></g><g transform="translate(136.774 216.093)"><mask id="ac" fill="#fff"><use xlink:href="#aa"/></mask><path d="M92 22.907L9.267 47.984-5.226.17l82.733-25.077L92 22.907z" opacity=".448" fill="url(#ab)" mask="url(#ac)"/></g><g transform="translate(129 180)"><mask id="af" fill="#fff"><use xlink:href="#ad"/></mask><use xlink:href="#ad"/><path d="M5.37-12.862L122-.142 90.63 42-26 29.28 5.37-12.863z" fill="url(#ae)" mask="url(#af)"/></g><g transform="translate(133 210)"><mask id="ai" fill="#fff"><use xlink:href="#ag"/></mask><path d="M64.148 27.39L11.366 58.734-12.87 8.397l52.782-31.345L64.148 27.39z" opacity=".443" fill="url(#ah)" mask="url(#ai)"/></g><g transform="translate(167 210)"><mask id="al" fill="#fff"><use xlink:href="#aj"/></mask><path d="M1.48 8.426l75.193 4.77.92-14.484L2.4-6.058 1.48 8.425z" opacity=".421" fill="url(#ak)" mask="url(#al)"/></g><g transform="translate(128 204)"><mask id="ao" fill="#fff"><use xlink:href="#am"/></mask><path d="M-8.613.042l115.427-28.377 15.746 64.048L7.133 64.09-8.613.043z" opacity=".357" fill="url(#an)" mask="url(#ao)"/></g><g transform="translate(105 148)"><mask id="ar" fill="#fff"><use xlink:href="#ap"/></mask><path d="M6 .13L93.956-16 103 27.87 15.044 44 6 .13z" fill="url(#aq)" mask="url(#ar)"/></g><g transform="translate(201 129)"><mask id="au" fill="#fff"><use xlink:href="#as"/></mask><path d="M94.458.87l-4.3 70.974-97.39-5.902 4.3-70.974L94.46.87z" fill="url(#at)" mask="url(#au)"/></g><g transform="translate(261 102)"><mask id="ax" fill="#fff"><use xlink:href="#av"/></mask><path d="M-26.152 31.195l41.58-51.338L65.64 20.524 24.062 71.862l-50.214-40.667z" fill="url(#aw)" mask="url(#ax)"/></g><g transform="translate(283 103)"><mask id="aA" fill="#fff"><use xlink:href="#ay"/></mask><path d="M-5.696 14.64L2.81-3.63l15.155 7.055-8.507 18.272-15.154-7.056z" opacity=".283" fill="url(#az)" mask="url(#aA)"/></g><g transform="translate(288 108)"><mask id="aC" fill="#fff"><use xlink:href="#aB"/></mask><path d="M-5.696 14.64L2.81-3.63l15.155 7.055-8.507 18.272-15.154-7.056z" opacity=".283" fill="url(#az)" mask="url(#aC)"/></g><g transform="translate(253 119)"><mask id="aF" fill="#fff"><use xlink:href="#aD"/></mask><path d="M-16.804 14.254l33.587-26.39L44.136 22.68 10.55 49.067l-27.354-34.814z" fill="url(#aE)" mask="url(#aF)"/><g transform="translate(1 3)" mask="url(#aF)"><mask id="aI" fill="#fff"><use xlink:href="#aG"/></mask><path d="M33.936 28.44L3.162 42.933-14 6.493 16.774-8l17.162 36.44z" opacity=".222" fill="url(#aH)" mask="url(#aI)"/></g></g><g transform="translate(258 127)"><mask id="aL" fill="#fff"><use xlink:href="#aJ"/></mask><path d="M40.385 2.162L30.813 51.34-7.62 43.86 1.954-5.318l38.432 7.48z" fill="url(#aK)" mask="url(#aL)"/></g><g transform="translate(185 39)"><mask id="aO" fill="#fff"><use xlink:href="#aM"/></mask><path d="M55.39-18.847L65.943 11.86 6.898 32.155-3.657 1.45 55.39-18.847z" fill="url(#aN)" mask="url(#aO)"/></g><g transform="translate(45 6)"><mask id="aR" fill="#fff"><use xlink:href="#aP"/></mask><path d="M-57.032 12.425l247.98-65.147 59.108 224.994L2.076 237.42-57.032 12.424z" fill="url(#aQ)" mask="url(#aR)"/></g><g transform="translate(0 91)"><mask id="aU" fill="#fff"><use xlink:href="#aS"/></mask><path d="M6.814-18.664L69.2 4.983l-19.72 52.03-62.387-23.648 19.72-52.03z" fill="url(#aT)" mask="url(#aU)"/></g><g transform="translate(6 91)"><mask id="aX" fill="#fff"><use xlink:href="#aV"/></mask><path d="M1.572-8.314L43.768.9l-4.962 22.724-42.196-9.216L1.572-8.314z" fill="url(#aW)" mask="url(#aX)"/></g><g transform="translate(9 93)"><mask id="ba" fill="#fff"><use xlink:href="#aY"/></mask><path d="M29.994 17.36L-2.824 8.63 2.728-7.914 35.545.816l-5.55 16.545z" fill="url(#aZ)" mask="url(#ba)"/></g><g transform="translate(13 111)"><mask id="bd" fill="#fff"><use xlink:href="#bb"/></mask><path d="M-16.842 1.42L50.384-8.834l10.084 66.108L-6.758 67.53-16.842 1.42z" fill="url(#bc)" mask="url(#bd)"/></g><g transform="translate(13 117)"><mask id="bg" fill="#fff"><use xlink:href="#be"/></mask><path d="M-15.72 10.996l37.128-26.07 26.174 37.28-37.128 26.068-26.174-37.278z" fill="url(#bf)" mask="url(#bg)"/></g><g transform="translate(15 126)"><mask id="bj" fill="#fff"><use xlink:href="#bh"/></mask><path d="M30.222 13.29L7.542 31.61l-18.77-22.23L11.45-8.938l18.77 22.23z" fill="url(#bi)" mask="url(#bj)"/></g><g transform="translate(34 -1)"><path d="M196.775 45.622C184.935 21.64 160.105 8.664 131.098 8c-.51.01-1.017.012-1.527.028 28.568.945 52.95 13.896 64.65 37.594 19.224 38.936-12.478 96.517-62.483 121.207-15.1 7.455-29.9 11.2-43.737 11.732.48.02.964.02 1.445.032 14.153-.368 29.34-4.11 44.848-11.765C184.298 142.14 216 84.557 196.775 45.62" opacity=".082" fill="#010101"/><path d="M135.32 103.934c-35.615 11.247-50.248 21.602-65.245 30.662-14.996 9.06-20.307 2.187-20.932 0-.625-2.186-6.762-3.616-8.95-20.8-2.187-17.183 29.537-37.203 83.21-51.132 30.695-7.965 49.424-13.412 74.16-15.63-.21-.463-.422-.926-.65-1.384C177.69 6.713 124.23-3.217 74.222 21.47 24.217 46.16-.736 97.74 18.488 136.678c19.225 38.936 65.94 54.868 115.945 30.18 31.377-15.493 55.544-43.935 64.448-72.595-18.564.724-43.607 3.37-63.56 9.672" opacity=".166" fill="#5B1111"/><path d="M196.914 45.65c19.225 38.936-12.477 96.517-62.482 121.207-50.006 24.69-96.72 8.757-115.945-30.18C-.738 97.74 24.217 46.163 74.22 21.473c50.007-24.69 103.47-14.76 122.694 24.178z" stroke="#D0A675"/><mask id="bm" fill="#fff"><use xlink:href="#bk"/></mask><path d="M158.604-97.068l141.32 244.76L45.38 294.662-95.94 49.903l254.544-146.97z" fill="url(#bl)" mask="url(#bm)"/></g><g transform="translate(67 40)"><mask id="bp" fill="#fff"><use xlink:href="#bn"/></mask><path d="M165.188-48.807l33.88 114.814-185.91 54.86L-20.72 6.052l185.91-54.86z" fill="url(#bo)" mask="url(#bp)"/></g><g transform="translate(86 29)"><mask id="bs" fill="#fff"><use xlink:href="#bq"/></mask><path d="M-8.343 2.764l156.418-36.837 16.917 71.834L8.574 74.6-8.343 2.764z" fill="url(#br)" mask="url(#bs)"/></g><g transform="translate(56 17)"><mask id="bu" fill="#fff"><use xlink:href="#bt"/></mask><use opacity=".138" fill="#FFF" transform="rotate(2 18.168 56.747)" xlink:href="#bt"/><path opacity=".153" fill="#FFF" mask="url(#bu)" d="M-4 1h32.336v111.5H-4z"/></g><g transform="translate(50 66)"><mask id="bw" fill="#fff"><use xlink:href="#bv"/></mask><use transform="rotate(-1 16.678 41.423)" xlink:href="#bv"/><path fill="#9B0303" mask="url(#bw)" d="M-34-12h93V95h-93z"/><mask id="by" fill="#fff"><use xlink:href="#bx"/></mask><use transform="rotate(5 13.782 37.39)" xlink:href="#bx"/><path opacity=".256" fill="#FBFBFB" mask="url(#by)" d="M-34-4h93v87h-93z"/></g><g transform="translate(59 19)"><mask id="bB" fill="#fff"><use xlink:href="#bz"/></mask><use xlink:href="#bz"/><path d="M33.102.052l2.88 112.344-38.837.996-2.88-112.345L33.102.052z" fill="url(#bA)" mask="url(#bB)"/></g><g transform="translate(69 12)"><use opacity=".208" fill="#FFF" xlink:href="#bC"/></g><g transform="translate(85.548 89.934)"><mask id="bF" fill="#fff"><use xlink:href="#bE"/></mask><path d="M80.72-35l128.018 53.34-48.72 116.927L32 81.927 80.72-35z" fill="#590000" mask="url(#bF)"/><path d="M79.856 10.957C44.24 22.204 29.6 32.55 14.61 41.62 8.786 45.143 3.995 45.61.452 44.98l.04.046c1.402 1.63 9.007 7.215 20.932 0 14.99-9.07 29.63-19.415 65.246-30.662 25.11-7.93 58.284-10.075 76.45-9.877.384-1.04.748-2.08 1.09-3.118-14.464-1.055-54.95.3-84.354 9.587" opacity=".162" fill="#FBFBFB"/></g><g transform="translate(138.616 108.753)"><mask id="bI" fill="#fff"><use xlink:href="#bG"/></mask><path d="M47.55-16.247l16.707 45.245L7.322 50.02-9.384 4.777 47.55-16.247z" opacity=".581" fill="url(#bH)" mask="url(#bI)"/></g><g transform="translate(144.616 115.753)"><mask id="bK" fill="#fff"><use xlink:href="#bJ"/></mask><path d="M.72 16.522s.894.252 2.485.608c1.586.37 3.866.847 6.623 1.236 2.75.41 5.98.767 9.434.834 1.726.022 3.507.005 5.305-.138 1.797-.14 3.608-.388 5.388-.75 1.78-.366 3.52-.88 5.162-1.548.767-.313 1.67-.716 2.46-1.076.754-.418 1.53-.748 2.24-1.217 1.482-.826 2.778-1.82 3.962-2.813 1.154-1.023 2.157-2.092 2.985-3.163 1.64-2.155 2.652-4.24 3.26-5.74l.94-2.388C51 .27 51.104.224 51.2.26c.085.032.132.12.115.207l-.132.662c-.088.432-.214 1.068-.437 1.867-.212.802-.51 1.77-.936 2.86-.417 1.096-1.045 2.27-1.807 3.51-.802 1.215-1.805 2.443-2.986 3.63-1.23 1.125-2.587 2.273-4.144 3.21-.748.51-1.61.904-2.432 1.37-.845.396-1.6.764-2.537 1.15-1.777.71-3.643 1.245-5.53 1.62-1.888.384-3.8.596-5.677.694-1.88.097-3.727.098-5.506-.014-3.56-.196-6.836-.74-9.605-1.332-2.766-.615-5.026-1.288-6.595-1.79-1.564-.52-2.44-.88-2.44-.88-.136-.056-.2-.21-.147-.346.05-.126.19-.19.318-.156" opacity=".176" fill="#FAF1F1" mask="url(#bK)"/></g><g transform="translate(97 80)"><path d="M.71 3.31V.21l30.664 1.615L.71 3.31z" fill="#000"/><mask id="bN" fill="#fff"><use xlink:href="#bL"/></mask><path d="M27.9-4.022l15.18 28.727-31.11 14.3L-3.21 10.28 27.9-4.023z" fill="url(#bM)" mask="url(#bN)"/></g><g transform="translate(112 85)"><mask id="bR" fill="#fff"><use xlink:href="#bP"/></mask><path d="M9.028-2.094l2.485 8.99L.866 10.17-1.62 1.18 9.03-2.093z" fill="url(#bQ)" mask="url(#bR)"/></g><g transform="translate(178 47)"><path d="M24.84 2.415L22.9 0 0 20.454l24.84-18.04z" fill="#000"/><mask id="bU" fill="#fff"><use xlink:href="#bS"/></mask><path d="M-.01 9.48L8.9 41.524l28.467-5.887-8.91-32.043L-.01 9.48z" fill="url(#bT)" mask="url(#bU)"/></g><g transform="translate(194 55)"><mask id="bX" fill="#fff"><use xlink:href="#bV"/></mask><path d="M-3.924 2.497l5.398 12.528 11.38-4.52-5.4-12.527-11.378 4.52z" fill="url(#bW)" mask="url(#bX)"/></g></g></svg>